<svg width="572" height="579" viewBox="0 0 572 579" fill="none" xmlns="http://www.w3.org/2000/svg">
<path d="M264.128 107.787C263.219 107.639 259.88 106.288 256.646 104.08C253.321 101.81 250.023 99.1332 242.366 95.3667C236.05 92.2601 230.065 91.2574 222.127 89.4503C216.411 88.1492 201.117 87.8382 191.296 87.3448C188.304 87.1945 185.66 86.1819 173.785 85.6871C162.865 85.2321 141.987 84.9586 130.674 84.8925C116.156 84.8075 111.198 86.4066 97.637 90.0072C89.2204 92.2418 84.0999 92.1303 79.9228 93.2759C76.38 94.2476 72.6654 96.1905 67.7146 97.9258C64.0551 99.2085 60.9297 101.311 50.8228 108.812C45.9234 112.448 42.5613 114.873 40.8877 117.241C38.0487 121.258 32.9794 126.845 30.6829 130.402C26.8259 136.375 25.1128 142.502 22.9559 148.501C22.2717 150.404 21.5034 151.895 20.5527 153.184C20.1357 153.75 19.2632 153.55 18.6982 153.87C14.4482 156.273 13.3923 164.888 11.3669 169.406C8.82515 175.075 8.21999 182.53 6.48209 190.027C4.96232 196.583 5.00791 199.963 4.4034 203.953C3.1688 212.103 4.08625 219.224 4.22948 221.253C4.28027 221.972 3.30827 221.964 2.85378 222.492C-1.39103 227.423 2.90791 245.197 3.44646 256.335C3.69111 261.395 5.96417 266.329 6.9496 269.343C8.04651 272.697 9.45729 275.753 10.4187 278.81C11.3112 281.647 13.6751 283.843 15.3367 286.662C17.3297 290.043 18.2636 292.896 18.0864 295.836C18.0941 296.538 18.2363 297.219 18.4097 297.957C18.583 298.695 18.7832 299.47 19.9476 302.107" stroke="white" stroke-width="2" stroke-linecap="round"/>
<path d="M288.964 97.6987C288.888 96.8066 286.273 88.2925 282.054 79.8159C278.574 72.8234 272.285 66.0923 268.225 61.1684C262.766 54.5478 255.838 50.2041 247.722 44.4552C238.751 38.1002 233.148 30.9711 229.396 28.0191C226.592 25.8127 222.461 24.7635 217.771 24.2489C213.647 23.7966 208.877 24.5514 203.234 26.0681C201.028 26.6611 198.206 26.853 194.945 26.6693C190.907 26.4418 187.849 22.5556 178.019 17.3518C167.737 11.9089 155.789 16.9522 148.213 17.6016C139.68 18.333 131.773 20.6636 128.454 21.1468C125.192 21.6215 113.731 24.2213 106.743 26.079C103.65 26.9011 100.585 28.5768 97.8246 29.7829C94.7911 31.1083 92.3851 34.9012 87.7771 37.1943C76.2657 42.9229 69.4988 42.7292 67.0685 45.8717C65.1018 48.4148 58.7689 50.2471 53.7899 52.549C46.272 56.0245 40.2047 58.8021 37.4084 60.139C31.905 62.7699 27.3498 69.1479 24.9521 71.1063C21.3075 74.0831 15.7561 81.3051 12.3162 84.7624C11.2116 85.8726 9.82534 86.6237 8.96809 87.8473C8.49704 88.5197 8.63445 89.6634 8.98275 90.2501C10.3678 92.5831 14.363 92.0684 17.3941 92.7845C21.2304 93.6908 25.387 95.0031 28.9485 96.0722C33.2663 97.3684 38.0242 98.6969 42.4147 100.223C45.8331 101.577 47.954 102.513 49.3042 103.405C49.9405 103.883 50.4777 104.412 52.4999 106.31" stroke="white" stroke-width="2" stroke-linecap="round"/>
<path d="M318.848 1C318.848 1.37323 318.768 2.3618 315.767 14.4849C312.956 25.8397 307.085 47.645 303.958 59.4619C300.512 72.4174 299.432 77.4009 298.263 84.2162C297.844 87.2213 297.781 89.3058 297.715 91.4535" stroke="white" stroke-width="2" stroke-linecap="round"/>
<path d="M318.282 3.0726C318.282 3.12514 318.282 16.7725 318.249 38.2442C318.215 46.0955 318.148 47.7651 318.082 49.0505C318.015 50.3359 317.952 51.1865 317.535 53.0649" stroke="white" stroke-width="2" stroke-linecap="round"/>
<path d="M213.136 207.657C210.966 209.917 204.299 217.798 199.152 223.569C195.568 227.587 190.162 233.036 175.336 244.69C165.213 252.648 157.15 259.699 152.319 263.995C149.382 266.606 145.217 269.629 138.915 274.506C132.102 279.78 121.884 286.97 111.292 293.422C107.491 295.737 106.8 295.96 97.099 298.723C87.3979 301.486 68.6855 306.744 58.6263 309.627C45.8724 313.282 38.2559 313.793 31.825 313.499C29.7193 313.403 26.2214 313.428 24.5487 312.986C21.1534 312.087 22.5195 304.719 21.1653 300.608C20.435 299.228 19.4774 297.936 18.4353 296.595C17.9486 295.937 17.5473 295.322 16.9444 294.341" stroke="white" stroke-width="2" stroke-linecap="round"/>
<path d="M263.584 109.171C261.967 109.171 256.868 108.798 239.056 101.978C229.474 98.3093 225.716 97.2338 221.158 96.1137C217.746 95.2755 208.856 95.2035 195.072 95.6468C188.149 95.8694 181.418 97.0204 169.553 99.8354C157.688 102.65 140.905 107.333 131.028 110.416C121.15 113.499 118.687 114.841 113.967 118.298C109.247 121.756 102.345 127.288 96.3137 132.794C90.2823 138.301 85.3306 143.614 81.0236 148.33C73.1484 156.953 67.2323 164.454 62.8519 171.134C60.7242 174.379 59.1962 177.587 56.1512 184.906C48.4115 203.512 44.5322 215.976 45.0503 217.318C46.3127 220.59 39.5251 227.206 36.2141 233.252C34.2073 236.916 33.4282 240.971 32.0346 250.903C29.1347 271.569 30.827 276.942 30.0242 281.411C28.2093 291.515 27.4342 295.938 27.4467 298.43C27.449 298.894 26.4014 298.684 25.9181 298.994C25.4347 299.304 25.2092 300.003 25.0929 302.819C24.9767 305.635 24.9767 310.547 25.0564 315.701" stroke="white" stroke-width="2" stroke-linecap="round"/>
<path d="M261.657 110.211C261.467 110.211 261.277 110.211 249.993 110.491C238.709 110.77 216.338 111.329 204.428 111.676C191.744 112.045 187.735 113.351 181.858 115.466C179.177 116.431 177.198 117.422 168.519 122.929C159.841 128.436 144.546 138.492 133.53 146.504C122.515 154.517 116.241 160.182 112.168 163.817C108.094 167.452 106.41 168.886 101.369 175.182C96.3276 181.477 87.9806 192.591 83.2847 198.998C77.6612 206.67 75.2583 212.297 71.0713 222.909C65.1201 237.991 61.9939 247.809 61.4109 249.149C60.8165 250.515 59.3463 252.903 56.7662 259.951C51.9133 273.209 47.5022 282.848 45.08 287.528C37.8438 301.511 36.0562 304.648 33.7127 308.323C33.0918 309.315 32.4277 310.385 31.8356 311.203C31.2435 312.021 30.7435 312.554 30.2283 313.104" stroke="white" stroke-width="2" stroke-linecap="round"/>
<path d="M239.232 117.011C234.271 117.083 219.062 118.104 211.296 120.318C205.108 122.083 195.992 131.374 190.306 137.475C182.26 146.11 182.693 159.607 179.669 167.436C177.498 173.055 174.288 176.837 169.332 181.063C165.447 184.376 158.288 189.468 152.113 194.932C145.938 200.395 140.837 205.923 135.158 212.828C123.031 227.574 116.257 237.431 114.776 239.711C112.326 243.483 106.708 254.471 101.449 265.285C97.932 272.519 96.6119 275.765 91.7086 282.536C89.6035 285.443 87.1512 287.27 82.088 290.782C71.7701 297.939 60.7682 304.063 53.2582 307.267C43.6705 311.356 39.3112 310.556 36.6826 312.02C36.0292 312.382 35.3543 312.684 34.6402 312.891C33.9261 313.098 33.1932 313.201 31.9056 313.307" stroke="white" stroke-width="2" stroke-linecap="round"/>
<path d="M166.446 190.697C166.446 190.75 166.416 200.048 166.271 214.722C165.96 221.378 165.205 226.61 162.712 236.672C160.773 242.794 157.463 250.978 152.394 259.873" stroke="white" stroke-width="2" stroke-linecap="round"/>
<path d="M191.312 163.127C191.312 163.1 191.312 163.073 191.294 169.601C191.276 176.13 191.24 189.215 190.556 198.943C189.446 214.735 185.925 223.845 182.943 230.256C181.207 233.622 179.022 237.216 176.947 240.453C174.871 243.689 172.972 246.459 169.768 249.326" stroke="white" stroke-width="2" stroke-linecap="round"/>
<path d="M207.879 185.023C207.879 185.13 207.838 192.763 207.542 205.436C206.824 212.909 206.107 216.091 205.52 217.59C205.172 218.359 204.721 219.142 203.265 221.251" stroke="white" stroke-width="2" stroke-linecap="round"/>
<path d="M187.249 146.903C187.249 146.849 187.566 147.473 192.186 155.758C196.453 163.412 204.771 177.986 209.369 186.418C216.428 199.363 217.38 203.371 220.624 209.068C226.227 218.911 227.806 221.779 229.867 227.015C231.184 230.361 231.573 233.422 232.212 236.438C233.086 240.555 232.927 246.099 233.657 249.619C234.955 254.104 236.501 258.474 237.703 261.73C237.975 262.493 238.255 263.228 238.749 264.183" stroke="white" stroke-width="2" stroke-linecap="round"/>
<path d="M368.005 139.991C366.841 140.424 361.693 143.541 355.67 148.456C351.833 151.586 347.509 161.82 343.036 170.119C339.867 175.998 336.021 186.569 332.063 197.028C328.713 205.883 324.503 215.918 321.972 220.837C320.159 224.36 317.731 228.446 315.859 232.506C312.453 239.891 310.369 246.059 308.722 250.329C307.001 254.176 304.901 259.44 304.094 262.555C303.965 263.277 303.903 263.972 303.497 265.097" stroke="white" stroke-width="2" stroke-linecap="round"/>
<path d="M308.935 89.993C308.935 88.6298 309.478 84.5839 310.44 81.7201C310.903 80.3384 311.298 78.6839 310.815 76.745C309.745 72.4474 305.994 71.9134 304.913 70.9602C302.495 68.8278 304.794 63.4371 305.92 60.1227C306.894 57.2569 312.292 56.3603 317.111 55.3824C321.509 54.4899 323.772 55.9694 325.089 55.3492C327.974 53.9906 327.338 49.474 328.108 45.6514C328.757 42.4325 331.587 39.5792 336.333 35.4052C344.895 27.8758 353.064 24.6756 362.111 21.7775C369.305 19.4729 381.596 19.1783 388.837 19.6238C393.118 19.8872 395.773 21.1652 411.119 21.6082C422.771 21.9445 426.796 19.984 431.274 17.7024C433.097 16.8227 434.599 16.3495 438.001 16.1266C440.688 16.0287 445.326 15.9616 450.792 15.3737" stroke="white" stroke-width="2" stroke-linecap="round"/>
<path d="M312.133 84.2913C313.256 83.5485 316.875 80.3643 319.172 77.1234C320.205 75.667 321.466 74.2221 323.003 72.911C324.496 71.6379 332.037 70.059 342.931 67.7462C354.665 65.2551 365.313 64.9072 370.367 64.247C373.42 63.8481 377.522 63.5059 381.087 62.9579C384.857 62.3783 387.819 61.7374 394.038 60.6612C397.771 60.015 403 59.5579 407.725 58.4756C412.969 57.2742 415.65 53.5662 418.031 50.62C420.522 47.5376 422.987 42.7613 425.519 39.1063C429.623 33.1844 433.87 30.1321 436.262 27.8457C439.075 25.157 442.131 22.8244 444.675 20.5715C448.166 17.4809 450.351 15.5764 452.662 13.7823C455.335 11.7065 458.966 10.6201 466.753 8.72286C476.393 6.37421 493.717 8.23463 498.132 8.76634C501.551 9.1781 504.999 10.6776 507.774 11.6783C510.498 12.6606 513.441 13.0549 517.139 14.7623C518.032 15.1745 518.657 15.6506 519.357 15.8165C522.076 15.2843 524.286 13.4833 527.457 12.5248C528.634 12.3877 530.262 12.317 531.939 12.2442" stroke="white" stroke-width="2" stroke-linecap="round"/>
<path d="M531.401 12.7384C530.976 13.3823 528.477 15.666 525.695 17.2613C523.21 18.6863 520.367 20.3316 517.155 21.3806C512.349 22.95 507.449 25.3952 504.541 26.5281C500.127 28.2473 493.799 28.4244 490.518 29.211C487.564 29.9193 477.128 30.4078 469.298 31.7798C465.772 32.3977 462.72 33.8031 459.579 34.9257C456.596 35.9916 453.42 35.8198 450.273 36.279C445.451 36.9827 440.227 40.4139 435.574 42.7996C431.059 45.1146 426.354 46.2585 423.013 47.1665C421.448 47.6443 419.98 47.987 418.555 48.2529C417.818 48.4001 417.053 48.5722 416.167 48.8319" stroke="white" stroke-width="2" stroke-linecap="round"/>
<path d="M317.014 80.4865C317.014 83.6344 316.342 93.6435 314.926 99.2176C312.887 107.245 311.815 110.974 311.105 115.236C310.553 118.554 310.112 125.498 309.341 133.382C308.974 137.134 307.712 143.037 305.401 154.996C302.439 170.322 300.535 181.049 299.318 184.598C296.793 191.957 295.003 200.287 294.118 205.228C293.079 211.022 290.364 222.394 288.785 230.815C287.516 237.578 285.356 240.187 285.736 243.322C286.093 246.264 286.877 249.262 287.398 252.899C287.504 253.79 287.563 254.562 287.661 255.355C287.759 256.149 287.894 256.942 288.11 258.195" stroke="white" stroke-width="2" stroke-linecap="round"/>
<path d="M233.486 117.288C234.707 117.288 238.407 117.518 241.078 118.42C243.884 119.367 244.659 123.589 245.706 128.56C247.068 135.021 247.353 138.364 248.351 141.479C249.402 144.757 254.2 156.147 257.985 167.405C260.828 175.858 262.787 186.616 264.197 194.942C264.839 198.733 265.357 206.961 266.505 219.903C267.858 235.175 271.643 242.608 273.336 246.132C273.854 247.034 274.496 247.912 275.526 249.068C276.555 250.224 277.952 251.63 280.775 253.38" stroke="white" stroke-width="2" stroke-linecap="round"/>
<path d="M194.612 141.023C194.717 141.128 202.143 151.023 213.792 166.67C219.145 173.86 220.547 176.16 223.102 179.856C233.409 194.763 235.975 202.17 237.497 206.815C239.781 213.786 240.637 222.549 242.616 235.893C245.364 246.913 248.53 256.886 250.534 262.798C250.844 263.468 251.198 264.088 251.849 264.314" stroke="white" stroke-width="2" stroke-linecap="round"/>
<path d="M347.296 130.355C349.516 130.238 358.412 131.013 363.422 132.129C366.632 132.844 369.319 134.755 371.227 136.841C372.238 137.946 372.083 139.761 372.674 141.117C373.814 143.734 378.199 143.908 381.429 144.72C382.873 145.083 384.299 145.365 385.607 145.984C388.39 147.3 388.935 151.423 390.042 154.485C391.434 158.337 392.008 162.547 392.482 166.515C392.822 169.357 392.74 178.775 392.729 191.003C392.721 200.666 389.214 210.458 387.819 214.629C386.84 217.554 385.709 220.473 384.464 224.104C383.156 227.919 380.822 234.688 379.25 239.654C377.934 243.811 377.062 247.499 377.031 256.632C377.746 260.953 378.524 263.03 379.4 264.395C379.928 265.125 380.625 265.93 381.693 266.689" stroke="white" stroke-width="2" stroke-linecap="round"/>
<path d="M292.7 259.097C292.7 253.157 294.277 234.522 297.448 225.206C299.313 219.726 301.998 213.389 307.077 190.916C308.756 183.482 310.327 176.441 311.198 168.683C312.801 154.399 316.419 143.533 318.697 133.856C320.302 127.039 319.765 118.758 320.692 113.146C321.716 106.94 322.864 103.16 324.432 99.5622C326.043 95.8665 331.142 94.5906 334.66 92.446C338.434 90.1456 342.752 90.1672 346.63 89.8511C350.447 89.54 356.013 89.1135 360.754 88.3093C364.514 87.6715 367.644 85.1726 370.918 83.0066C374.531 80.6162 377.811 77.6174 381.618 74.9413C386.893 71.2333 395.986 74.1224 397.452 75.4224C398.944 76.7453 399.676 78.7333 401.21 79.8485C404.326 82.1136 410.426 81.0607 414.524 79.5561C418.146 78.226 420.683 74.4353 424.753 73.6123C429.788 72.5945 432.522 72.4053 433.24 71.8532C434.249 71.077 429.894 71.9607 428.181 72.9773C424.864 74.9464 423.377 79.2643 420.314 82.1471C416.357 85.8715 411.348 85.9369 407.29 86.526C403.473 87.0802 399.92 88.4555 396.349 90.5937C393.016 92.5894 390.191 95.7922 386.74 98.147C382.952 100.731 378.81 101.91 375.626 104.736C372.629 107.397 368.815 110.839 365.178 113.409C361.637 115.913 356.126 115.115 352.597 116.887C349.312 118.536 348.006 126.198 345.056 131.168C343.054 134.542 340.253 140.348 337.989 145.159C336.346 148.649 334.97 152.573 331.53 158.89C328.452 164.543 323.872 175.047 320.686 182.279C314.617 196.052 310.175 204.704 308.608 209.41C305.844 217.716 303.019 227.21 301.062 233.745C299.753 238.118 299.505 243.38 298.806 247.283C298.133 251.032 296.857 254.764 295.367 259.747C294.552 261.745 293.593 263.352 292.369 264.722C291.697 265.353 290.919 265.853 288.057 266.602" stroke="white" stroke-width="2" stroke-linecap="round"/>
<path d="M405.492 82.6531C400.922 86.3101 390.429 93.9689 386.379 94.5947C381.669 95.3226 376.794 96.432 372.691 97.7994C367.907 99.3939 362.455 102.175 356.197 105.486C349.703 108.921 344.096 112.115 339.823 115.593C335.786 118.878 333.864 122.829 331.204 127.059C328.648 131.125 326.786 135.144 320.114 152.862C315.031 166.359 310.453 180.39 306.946 190.608C304.042 198.592 301.597 206.275 300.43 210.833C300.233 211.81 300.058 212.708 299.617 215.469" stroke="white" stroke-width="2" stroke-linecap="round"/>
<path d="M377.033 78.7209C376.782 79.8169 374.952 83.5586 372.353 86.7329C369.758 89.9036 366.261 93.7477 362.329 98.7146C357.378 104.968 353.043 106.51 348.812 108.003C344.173 109.64 338.613 111.583 326.688 115.122C322.832 116.266 320.883 117.43 318.969 119.246C315.864 122.192 314.661 125.843 314.244 127.827C313.447 131.62 315.032 144.562 314.381 153.71C314.101 155.973 313.904 158.72 313.71 161.621C313.604 162.926 313.482 163.895 312.861 165.506" stroke="white" stroke-width="2" stroke-linecap="round"/>
<path d="M298.083 88.703C298.083 90.6657 298.14 98.8947 297.977 103.697C297.907 105.75 297.428 108.271 297.394 110.901C297.367 113.018 297.149 118.271 297.018 124.981C296.944 128.754 296.643 131.014 296.431 135.378C296.298 138.115 296.01 139.799 295.562 142.682C295.203 144.989 295.249 148.766 294.959 151.512C294.504 155.813 294.215 157.267 293.768 160.861C293.513 162.908 293.303 165.67 292.582 168.919C291.534 173.642 290.742 175.491 290.184 179.253C289.891 181.233 289.469 183.502 288.723 189.495C288.347 192.517 287.751 194.653 287.434 197.237C286.856 201.96 286.195 206.962 285.646 210.458C285.415 211.931 285.405 212.811 285.252 218.744C285.099 224.676 284.836 235.64 284.947 242.494C285.144 254.694 286.978 256.393 287.543 258.517C288.372 261.198 288.783 262.689 289.167 264.45C289.235 265.172 289.265 266.268 289.337 267.495" stroke="white" stroke-width="2" stroke-linecap="round"/>
<path d="M288.037 94.6874C288.063 95.107 288.236 96.6105 288.52 98.047C288.801 99.4703 289.552 100.764 289.896 102.534C290.22 104.2 290.142 105.617 290.205 107.844C290.354 113.085 290.257 117.593 290.182 120.813C290.055 126.316 290.184 130.555 290.403 132.262C291.074 137.495 290.609 143.536 290.235 146.634C289.93 149.162 288.703 155.624 287.679 159.698C287.258 161.372 286.833 163.862 286.684 165.926C286.538 167.955 285.93 172.785 283.842 182.257C283.278 184.815 282.63 187.299 282.045 190.57C281.459 193.84 280.911 197.811 280.461 201.196C279.655 207.258 279.083 211.452 278.645 217.06C278.32 221.23 278.334 228.119 278.344 232.241C278.365 240.591 279.079 245.152 279.672 247.114C280.125 248.609 280.836 250.353 281.268 252.085C282.161 255.537 284.123 261.482 285.222 263.798C285.657 264.689 285.844 265.005 286.136 265.441" stroke="white" stroke-width="2" stroke-linecap="round"/>
<path d="M361.176 116.628C361.255 116.628 361.628 116.813 365.686 120.076C369.453 123.103 376.522 129.115 380.564 132.544C385.401 136.648 387.608 138.872 389.956 141.192C391.108 142.33 392.151 143.574 394.834 147.3C396.793 150.022 399.763 154.576 401.891 157.984C405.312 163.461 406.726 166.507 407.47 168.034C409.516 172.234 410.162 178.027 410.436 180.213C410.895 183.874 410.503 190.226 410.017 193.693C409.321 198.669 408.926 200.725 408.059 202.52C406.258 206.251 405.295 211.419 404.068 214.428C402.965 217.133 400.799 220.384 399.073 222.491C396 226.241 393.39 228.561 391.376 231.485C389.925 233.593 388.752 236.201 388.094 239.678C387.352 243.596 388.491 246.405 389.35 249.087C390.978 254.173 392.719 256.845 393.529 258.599C394.139 259.921 394.587 261.285 395.508 262.72C396.909 264.901 398.748 268.613 401.1 271.628C402.767 273.765 405.587 275.475 407.692 276.871C408.838 277.631 411.132 278.408 415.928 280.435C418.883 281.684 422.716 283.792 430.341 287.025C437.965 290.258 449.217 294.658 455.377 297.049C461.538 299.44 462.265 299.688 463.039 299.921C463.812 300.154 464.611 300.364 465.321 300.595" stroke="white" stroke-width="2" stroke-linecap="round"/>
<path d="M377.617 253.515C377.617 254.721 377.838 258.76 378.229 262.326C378.605 265.755 380.686 268.67 385.308 275.828C388.953 281.473 392.823 285.789 399.115 291.048C405.778 296.618 418.813 301.108 424.357 302.638C429.691 304.11 433.814 305.469 438.279 306.758C448.315 309.655 459.476 312.968 467.088 315.041C475.051 317.211 484.286 320.416 489.004 321.776C492.398 322.754 496.083 323.981 499.47 324.959C502.526 326.177 505.414 327.827 508.138 329.754C508.799 330.26 509.427 330.788 508.105 330.737" stroke="white" stroke-width="2" stroke-linecap="round"/>
<path d="M416.231 124.532C417.605 124.532 427.524 125.188 434.496 126.092C438.565 126.619 444.657 129.071 449.211 130.405C454.627 131.992 461.345 135.289 465.785 137.661C469.17 139.47 473.161 143.449 476.126 146.707C479.381 150.284 484.048 156.667 487.745 160.541C491.521 164.498 495.634 166.733 498.701 168.188C502.967 170.212 507.838 172.904 511.248 175.266C517.293 179.451 520.894 181.327 527.903 185.457C532.573 188.209 536.991 191.433 540.556 195.25C543.629 198.54 547.511 202.499 550.963 207.022C553.376 210.184 556.513 213.598 559.238 216.683C561.991 219.799 564.037 224.954 565.908 228.532C567.606 231.779 569.386 236.444 569.946 241.02C570.739 247.496 568.45 251.323 566.837 255.379C564.967 260.08 562.317 263.593 559.942 269.043C556.595 276.726 554.079 286.559 551.237 296.051C546.101 313.204 544.122 316.292 541.773 324.74C540.548 329.145 538.924 333.028 537.258 336.542C535.476 340.299 534.506 345.607 533.495 349.372C532.251 354.003 530.635 356.5 529.698 357.411C526.867 360.165 522.264 349.168 519.294 344.951C516.84 341.465 515.083 337.608 512.446 334.535C511.702 333.815 510.847 333.01 510.137 332.291C509.428 331.572 508.89 330.963 507.175 329.386" stroke="white" stroke-width="2" stroke-linecap="round"/>
<path d="M363.105 116.846C364.232 116.716 368.33 116.408 372.859 115.523C378.417 114.437 385.61 115.457 389.871 117.262C393.987 119.006 398.6 119.279 402.543 118.669C403.376 118.54 404.115 118.071 404.537 118.346C407.307 120.153 402.403 124.824 401.964 126.331C401.75 127.065 402.203 127.852 402.714 128.065C405.402 129.185 408.164 124.779 409.913 121.986C411.711 119.116 411.178 114.968 411.531 111.49C411.705 109.78 410.536 108.275 409.245 107.161C405.843 104.225 398.922 106.343 395.79 106.644C395.125 106.707 394.768 105.704 394.613 104.921C394.457 104.139 394.559 103.292 395.076 102.624C398.072 98.7553 410.43 101.153 417.599 101.427C420.923 101.554 418.136 108.472 416.935 112.356C415.121 118.221 416.709 125.319 417.837 126.078C418.366 126.433 419.206 125.721 419.888 124.852C422.82 121.119 422.164 111.066 424.022 105.257C424.605 103.433 427.645 103.809 429.269 104.096C433.243 104.8 428.984 114.351 427.018 118.408C426.442 120.139 426.032 121.846 425.669 123.557C425.489 124.427 425.316 125.3 424.911 125.662" stroke="white" stroke-width="2" stroke-linecap="round"/>
<path d="M364.479 117.406C364.524 117.406 364.848 117.406 367.077 117.977C372.638 119.402 377.324 121.39 379.991 122.83C383.649 124.806 386.782 127.542 389.488 130.213C390.982 131.687 392.568 133.553 396.41 137.787C400.251 142.021 406.261 148.605 409.845 152.563C413.429 156.521 414.405 157.655 415.895 159.268C417.385 160.881 419.36 162.939 422.226 165.778C425.092 168.617 428.79 172.175 430.802 174.122C432.814 176.069 433.028 176.298 435.107 179.457C437.185 182.616 441.122 188.698 443.273 191.987C446.034 196.208 448.704 200.919 450.313 204.409C451.985 208.038 453.397 214.745 453.897 218.269C454.106 222.179 454.277 223.481 454.357 225.876C454.37 227.241 454.385 229.605 454.401 232.041" stroke="white" stroke-width="2" stroke-linecap="round"/>
<path d="M464.871 300.012C465.261 300.162 468.407 301.977 471.112 303.294C471.8 303.629 472.47 303.796 478.193 306.14C483.589 308.351 494.014 312.71 500.682 315.653C507.349 318.596 509.935 320.009 512.795 321.947C515.656 323.884 518.713 326.302 520.968 328.302C527.149 333.785 528.423 337.284 528.943 339.691C529.654 342.977 528.782 347.058 528.31 349.959C528.103 351.357 528.065 353.418 528.078 356.377C528.092 357.596 528.119 358.237 528.147 358.835" stroke="white" stroke-width="2" stroke-linecap="round"/>
<path d="M454.575 230.096C454.575 230.209 454.594 233.514 454.695 238.914C454.754 242.04 455.682 245.028 457.237 249.24C458.071 251.497 459.471 253.805 461.62 256.762C463.769 259.719 466.746 263.207 471.472 267.449C476.197 271.692 482.581 276.584 488.871 281.153C495.16 285.721 501.162 289.818 505.677 293.505C510.193 297.192 513.041 300.344 515.37 303.405C517.699 306.466 519.422 309.34 520.969 312.304C522.515 315.269 523.833 318.237 524.939 321.2C527.092 326.966 528.015 330.542 528.456 331.508C529.326 333.694 530.022 336.869 530.228 339.081C530.274 340.378 530.304 342.675 530.335 345.041" stroke="white" stroke-width="2" stroke-linecap="round"/>
<path d="M372.666 116.091C372.688 116.091 375.626 116.091 380.784 116.221C384.484 116.315 388.188 117.77 392.354 119.583C394.319 120.438 395.857 121.431 397.127 122.293C398.398 123.155 399.323 123.926 404.448 129.522C409.572 135.117 418.868 145.514 424.884 151.901C430.901 158.289 433.356 160.352 441.808 165.926C450.259 171.5 464.633 180.522 473.876 186.465C483.119 192.407 486.795 194.996 488.887 196.438C491.35 198.137 492.094 198.374 493.584 199.635C494.874 200.727 496.801 203.216 499.827 206.461C502.853 209.706 506.807 213.755 509.318 216.577C512.985 220.697 515.427 224.258 518.18 227.294C519.655 228.92 521.323 230.638 523.488 233.102C526.799 236.87 529.605 238.273 530.462 238.729C530.671 238.839 530.458 238.62 530.361 238.672C529.381 239.195 531.513 241.345 532.909 243.347C536.588 248.624 537.86 250.479 538.967 252.265C539.351 252.855 539.647 253.57 539.854 254.519C539.953 255.023 540.038 255.573 540.186 256.673" stroke="white" stroke-width="2" stroke-linecap="round"/>
<path d="M540.234 256.518C540.245 256.518 540.256 256.518 540.254 262.124C540.252 267.729 540.237 278.941 538.882 291.457C537.528 303.973 534.834 317.454 533.071 325.883C531.307 334.312 530.555 337.28 530.116 340.34C529.243 346.426 529.666 350.751 529.989 353.181C530.114 354.48 530.163 355.915 530.093 356.771C530.023 357.627 529.832 357.861 529.636 358.101" stroke="white" stroke-width="2" stroke-linecap="round"/>
<path d="M517.067 15.1946C514.124 15.1946 506.518 15.4587 503.673 15.8458C501.527 16.1379 499.668 17.6577 497.189 19.5996C496.238 20.3451 494.104 21.5506 489.936 23.8055C484.231 26.8923 479.368 28.4229 476.038 29.1865C471.078 30.3239 466.277 31.1386 463.35 31.8787C461.701 32.2955 459.011 32.571 453.656 33.034C441.335 33.334 439.673 33.6435 438.112 33.7729C437.002 33.8168 435.247 33.8168 432.873 33.4737" stroke="white" stroke-width="2" stroke-linecap="round"/>
<path d="M501.186 11.5629C498.022 11.5629 490.284 11.9556 484.213 14.6578C477.919 17.4589 474.406 20.7869 472.665 21.3365C469.381 22.3731 463.224 24.0267 456.404 25.2755C450.044 26.2508 446.149 26.8791 441.717 27.073C440.673 27.1232 440.094 27.1738 438.658 27.3002" stroke="white" stroke-width="2" stroke-linecap="round"/>
<path d="M482.24 8.29514C481.3 8.29514 474.958 10.6647 471.01 12.2883C466.298 14.2259 458.578 15.8144 456.648 16.8336C453.06 18.728 448.642 21.4037 446.266 21.8671C445.692 21.9708 445.228 22.0545 444.617 22.0976C444.005 22.1407 443.26 22.1407 442.54 22.1407" stroke="white" stroke-width="2" stroke-linecap="round"/>
<path d="M10.3037 89.2283C11.1162 89.2283 13.7481 89.4491 16.738 90.1234C18.826 90.5943 22.0512 89.8515 24.6466 89.2979C26.6614 88.8682 30.0396 88.5872 32.6825 88.2488C33.3051 88.1691 34.0266 88.0261 39.6175 87.4388C45.2084 86.8516 55.6451 85.8113 61.9545 85.1446C68.264 84.4778 70.13 84.216 75.9522 83.9346C81.7744 83.6532 91.4963 83.3602 96.7245 83.2487C103.363 83.1073 105.295 83.8644 107.107 84.3432C108.038 84.5288 108.96 84.6836 109.828 84.8859C110.256 85.0131 110.659 85.1901 111.735 85.6052" stroke="white" stroke-width="2" stroke-linecap="round"/>
<path d="M15.5788 83.1927C17.312 83.1927 21.5555 82.8479 23.4086 81.9923C25.6075 80.977 27.1671 79.9654 29.2046 78.4641C30.9903 77.1485 33.5481 75.8109 38.358 73.5536C48.8861 68.6128 53.0494 67.7458 56.4495 66.9303C64.9016 64.9033 68.0502 65.3049 72.0844 64.967C74.2516 64.7855 76.1985 64.8532 79.5452 64.6636C86.1019 64.292 91.4955 63.8618 94.3729 63.5914C98.1665 63.2349 101.079 63.628 102.626 63.9583C104.435 64.3443 109.478 65.6319 116.599 67.5133C121.634 68.8437 126.213 70.2994 130.59 71.726C138.135 74.1857 146.667 77.4756 149.005 78.8869C151.669 80.5528 153.746 81.6039 155.591 82.4892C156.383 82.8629 156.881 83.0831 158.252 83.4911" stroke="white" stroke-width="2" stroke-linecap="round"/>
<path d="M26.3565 70.3456C26.8988 70.2261 28.7632 69.6648 30.6187 69.255C32.8257 68.7676 35.2563 67.9183 37.2246 67.0186C39.6217 65.923 41.9455 65.1292 44.2843 64.3507C46.3016 63.6792 48.2123 63.17 51.6972 62.5456C57.2965 61.5424 62.5982 60.6325 67.3853 59.4526C71.6346 58.4052 73.9072 57.57 75.8271 56.9371C78.0469 56.2053 83.5948 54.8803 96.0767 53.1762C101.278 52.4661 109.147 52.8779 113.47 52.9134C118.374 52.9537 119.403 53.2289 122.673 53.7293C130.743 54.9643 137.529 56.3946 140.144 57.3481C144.924 59.0906 149.35 61.9951 152.474 63.1776C155.746 64.4164 160.335 66.0853 162.278 66.9451C166.653 68.8804 173.842 73.8369 175.86 75.4743C178.187 77.3624 179.394 78.9542 180.729 80.2713C182.47 81.9891 184.516 83.9315 185.97 85.5305C186.311 85.9008 186.624 86.2308 186.93 86.5824C187.235 86.934 187.524 87.297 188.054 87.659" stroke="white" stroke-width="2" stroke-linecap="round"/>
<path d="M87.8811 37.7986C89.3486 37.7986 93.1042 37.9465 95.1986 38.1602C97.4284 38.3876 99.5563 38.8447 101.532 39.079C107.728 39.8136 118.779 39.2503 121.446 38.9518C123.986 38.6676 129.664 38.6325 136.14 38.6111C142.355 38.5905 148.856 39.8137 151.059 40.155C154.302 40.6575 156.562 41.0617 160.376 41.9493C163.291 42.6276 165.749 43.7273 167.77 44.6321C169.674 45.4853 171.507 46.4663 173.305 47.4225C174.934 48.2891 176.106 50.0556 177.463 51.6414C178.849 53.2607 179.651 54.367 179.806 55.1629C179.882 55.5504 179.551 55.9315 179.204 56.0359C177.52 56.5429 176.082 54.231 174.491 53.3841C172.855 52.5132 170.861 52.2963 169.039 51.8512C167.225 51.408 165.425 50.9445 163.615 50.5812C161.865 50.2296 160.092 49.7517 158.292 49.4211C156.437 49.0804 154.544 48.6528 152.73 48.262C146.316 46.8802 134.804 48.1414 131.865 48.3401C127.199 48.6555 118.898 48.6463 115.671 48.9434C114.367 49.0635 112.077 49.0456 109.936 49.1986C109.33 49.242 109.737 49.511 110.196 49.6893C111.161 50.0223 112.558 50.406 114.097 50.812C114.762 50.9938 115.19 51.1264 116.112 51.6389" stroke="white" stroke-width="2" stroke-linecap="round"/>
<path d="M179.711 56.1983C180.088 56.5756 181.415 58.0229 182.802 59.3254C184.134 60.5755 186.094 60.953 188.55 62.7797C192.062 65.392 195.405 68.8569 197.95 71.1082C199.642 72.6051 201.828 74.7052 203.544 76.459C204.804 77.7469 205.017 79.759 205.765 81.3771C206.682 82.9095 207.427 84.0848 207.959 84.9644C208.233 85.4383 208.515 85.9681 209.085 86.9003" stroke="white" stroke-width="2" stroke-linecap="round"/>
<path d="M95.0255 32.358C98.8033 32.358 107.079 32.2737 109.613 31.6932C111.743 31.2054 113.745 30.5175 115.709 30.2576C117.67 29.9981 127.107 29.8558 134.891 29.9793C138.503 30.0367 142.2 30.6221 145.172 31.1678C149.119 31.8924 152.012 32.8475 157.807 34.9496C160.527 35.9365 162.655 37.0133 165.452 37.7911C168.194 38.5538 171.602 39.9588 174.316 41.1084C177.07 42.2753 180.647 43.1786 184.819 45.2795C187.817 46.7889 189.334 48.1843 191.285 49.6569C193.856 51.597 197.263 54.1189 198.907 54.8926C201.032 55.8922 203.585 57.8309 206.497 60.5778C208.404 62.3773 209.576 64.9334 211.142 67.4589C212.412 69.5068 213.735 71.0656 215.158 72.5576C216.679 74.1514 218.503 75.4672 220.476 77.285C222.604 79.2448 223.62 80.7713 225.175 81.7666C225.583 81.9967 226.008 82.2078 226.895 82.3385C227.782 82.4692 229.118 82.513 230.547 82.4064" stroke="white" stroke-width="2" stroke-linecap="round"/>
<path d="M230.547 82.4064C230.159 82.0871 228.046 79.676 226.293 77.421C225.058 75.8321 223.777 74.1894 222.452 72.4804C220.494 69.9553 217.981 68.3084 216.618 66.6734C215.127 64.8853 214.451 63.1486 214.311 60.7338C214.28 60.2029 214.846 59.9844 215.29 59.8899C217.338 59.4535 219.211 62.3652 221.037 64.4024C222.383 65.9035 223.914 66.8381 227.57 69.2368C229.494 70.4996 231.094 71.6175 233.603 73.5974C235.346 74.9724 237.004 77.2277 238.936 79.7373C241.49 83.0538 242.72 85.3421 244.897 87.8238C246.571 89.7315 248.681 91.1095 250.301 92.1877C251.958 93.2914 253.698 94.0228 255.383 94.738C256.238 95.1011 257.343 95.1697 258.343 95.0101C259.177 94.8772 259.15 93.4624 259.243 92.5298C259.425 90.7116 257.523 89.311 255.873 88.0352C253.938 86.539 252.486 84.4414 250.246 82.378C248.559 80.8246 246.679 79.022 244.787 77.0902C242.173 74.4202 239.684 72.1936 237.584 70.0678C236.138 68.6042 234.425 67.2932 232.293 65.6093C230.482 64.1791 227.369 61.6356 225.231 59.8213C223.736 58.5524 221.632 56.9143 218.324 53.7887C215.888 51.4862 213.657 47.6942 211.434 44.2439C210.201 42.3317 208.587 40.8895 207.161 39.3827C205.383 37.5042 203.771 36.0473 201.571 34.3904C197.876 31.607 195.695 30.6895 193.932 29.7037C192.381 28.836 190.152 28.938 187.319 28.5577C185.243 28.2789 183.518 27.4011 180.982 26.6098C179.108 26.0248 176.286 25.5759 173.154 24.8355C170.54 24.2174 164.601 24.014 156.986 23.9744C151.65 23.9467 149.147 24.9181 146.356 25.3125C142.991 25.788 137.281 27.5141 133.83 27.8766C132.728 28.063 131.851 28.3082 130.992 28.5774C130.557 28.7146 130.121 28.8528 128.868 29.0022" stroke="white" stroke-width="2" stroke-linecap="round"/>
<path d="M158.311 33.5823C159.482 33.5823 163.741 34.255 166.741 34.9371C170.011 35.6809 173.436 36.232 182.363 39.0416C190.93 41.7378 194.991 43.1431 197.364 43.8066C199.319 44.3534 201.591 44.6835 203.556 45.4817C205.464 46.2571 207.664 47.681 209.549 49.0316C211.811 50.652 212.407 52.6887 213.261 54.6092C214.354 56.9449 214.991 58.2993 215.44 59.2651C215.671 59.7198 215.908 60.1028 216.371 60.2077" stroke="white" stroke-width="2" stroke-linecap="round"/>
<path d="M200.59 28.7022C201.097 28.9275 203.341 30.4765 205.191 31.8257C206.893 33.0672 209.451 33.9676 211.807 34.7708C214.317 35.6262 217.227 37.0165 227.681 42.7354C234.671 46.5594 238.235 49.8412 241.637 52.6855C247.678 57.7369 250.755 59.7063 253.879 62.3037C256.556 64.5298 257.942 65.8394 258.574 67.6513C258.765 68.1972 258.686 68.921 258.703 68.9054C260.227 67.5746 258.003 64.8894 256.712 61.8536C255.567 59.1599 255.088 54.9756 254.327 52.4003C253.551 49.7745 251.705 49.0589 250.27 47.8559C248.62 46.4736 247.444 44.7049 245.387 43.2263C243.502 41.8711 241.258 40.3671 239.138 38.9002C237.328 37.6484 235.098 36.2548 233.076 34.9387C230.517 33.2729 227.298 31.7346 224.259 30.6059C220.537 29.2238 214.224 28.9954 210.06 28.7902C207.131 28.5924 205.191 28.3106 203.388 27.9711C202.941 27.8884 202.5 27.8127 201.249 27.4623" stroke="white" stroke-width="2" stroke-linecap="round"/>
<path d="M212.051 35.4585C212.855 35.9081 217.672 39.7936 220.414 42.4564C221.97 43.9671 223.292 46.3312 226.432 50.068C228.874 52.975 232.446 56.5259 235.188 59.0921C237.174 60.9512 239.269 63.2093 240.887 64.7454C243.4 67.1316 246.065 69.0255 247.596 70.2713C249.089 71.4867 250.701 72.6768 252.328 73.919C254.512 75.5854 256.713 76.441 258.625 76.8747C260.557 77.313 263.128 79.5955 265.727 82.3517C268.799 85.6104 269.578 87.9176 271.449 91.2277C272.769 93.5639 273.406 97.1575 274.784 102.127C275.832 105.908 276.876 108.661 277.599 111.501C278.115 113.53 278.999 116.005 279.461 118.171C279.572 118.69 279.552 119.308 279.717 119.359C282.745 120.292 280.169 111.198 279.825 102.476C279.628 97.5117 278.93 94.9869 278.6 92.4969C278.05 88.3409 279.258 83.4772 278.817 79.9308C278.487 77.2681 276.255 75.0632 274.401 72.7771C272.818 70.826 270.767 69.154 268.667 67.8906C266.818 66.7783 265.327 66.3717 264.345 66.256C263.88 66.2013 263.477 66.4959 263.479 66.8895C263.492 69.7324 267.949 72.8018 269.798 75.6052C271.264 77.8284 273.242 82.2722 275.352 85.2989C276.411 86.4394 277.271 87.4105 277.73 88.1797C277.91 88.5852 277.985 89.0217 278.371 89.9043" stroke="white" stroke-width="2" stroke-linecap="round"/>
<path d="M284.421 86.3364C284.421 86.4035 284.421 94.7436 284.325 107.674C284.277 114.214 283.104 116.007 282.632 118.126C282.21 120.022 281.58 122.124 281.002 124.977C280.032 129.758 279.996 137.823 279.594 143.469C279.502 144.749 279.287 146.357 279.09 150.822C278.674 160.213 278.396 167.073 278.32 168.742C278.133 172.862 277.852 175.975 277.779 179.139C277.674 183.711 277.322 185.857 276.996 187.82C276.477 190.942 275.805 195.457 275.56 201.633C275.386 206.04 275.51 214.342 275.527 219.231C275.555 227.049 276.084 228.81 276.758 232.836C277.143 235.149 277.405 236.518 277.695 237.372C277.876 237.782 278.125 238.142 278.594 238.823" stroke="white" stroke-width="2" stroke-linecap="round"/>
<path d="M258.664 88.2798C259.222 89.1265 261.148 91.6461 262.678 93.6298C263.916 95.2354 265.815 98.5299 269.098 106.165C270.34 109.055 271.033 110.954 271.744 113.229C272.372 115.24 272.594 117.959 271.699 119.957C270.801 121.963 266.917 121.124 265.618 122.674C264.985 123.43 265.193 124.761 265.171 128.375C265.121 136.529 265.403 143.806 265.949 146.988C266.442 149.86 266.655 151.935 266.985 153.884C267.327 155.899 267.401 158.375 267.307 171.415C267.267 176.867 266.643 180.439 266.286 184.175C265.374 193.715 266.694 196.537 267.147 198.642C267.595 200.722 269.086 205.993 270.595 213.72C271.367 217.668 272.425 222.236 273.254 225.413C273.81 227.543 274.609 229.338 275.271 231.38C275.568 232.292 275.901 233.146 276.327 233.976C276.562 234.386 276.834 234.775 277.525 235.857" stroke="white" stroke-width="2" stroke-linecap="round"/>
<path d="M193.46 136.638C193.719 137.21 194.466 139.151 195.392 140.674C196.356 142.259 199.137 141.305 201.012 141.554C203.265 141.853 205.327 139.094 208.397 135.109C210.441 132.455 212.418 130.579 214.289 129.102C216.512 127.348 218.326 126.336 220.255 125.713C220.826 125.529 221.604 125.615 222.284 125.887C224.919 126.943 226.006 128.742 227.791 130.31C229.413 131.735 229.161 134.441 229.71 139.515C230.152 143.593 230.261 145.947 230.445 150.057C230.971 161.802 231.014 163.932 231.611 165.841C232.352 168.214 233.789 169.689 235.096 171.043C236.51 172.51 237.028 174.811 237.765 176.682C238.102 177.538 238.663 178.614 239.341 180.057C240.106 181.684 243.173 188.941 247.555 198.754C249.802 203.784 250.951 205.422 253.802 210.684C255.746 214.273 257.158 218.12 257.688 219.938C258.308 222.066 259.242 224.793 260.006 227.563C261.019 231.236 259.907 237.692 259.332 240.09C258.783 242.38 258.419 246.038 258.522 249.391C258.586 251.503 259.482 253.93 260.071 255.929C260.613 257.77 261.293 259.699 264.332 266.481C265.765 269.677 267.452 272.114 268.587 273.54C269.919 275.215 272.411 279.322 274.39 282.226C275.022 283.119 275.595 283.972 276.151 284.897C276.442 285.406 276.753 285.993 277.466 286.806" stroke="white" stroke-width="2" stroke-linecap="round"/>
<path d="M239.582 264.912C240.308 265.65 244.227 270.811 247.815 276.906C251.601 283.335 252.211 286.036 255.191 290.504C258.103 294.87 260.423 295.583 261.964 296.821C263.509 298.062 264.803 299.479 267.153 301.638C268.728 303.085 270.765 303.344 272.972 303.575C273.687 303.649 274.603 303.652 275.633 303C282.807 298.455 288.777 289.683 290.701 287.269C292.947 284.454 295.869 280.123 297.218 277.682C298.691 275.016 299.727 270.939 300.843 268.466C301.194 267.827 301.628 267.137 302.092 266.367C302.556 265.598 303.037 264.771 303.979 263.033" stroke="white" stroke-width="2" stroke-linecap="round"/>
<path d="M251.149 262.564C251.912 265.457 254.183 273.08 256.381 277.714C257.985 281.095 259.65 283.095 264.34 291.357C267.39 297.46 268.611 300.235 269.603 302.254C269.834 302.64 270.096 302.996 270.722 303.771" stroke="white" stroke-width="2" stroke-linecap="round"/>
<path d="M290.851 266.387C290.738 266.897 289.387 268.6 287.849 270.077C286.973 270.918 285.5 273.647 283.309 277.234C281.745 279.796 279.587 284.385 276.709 290.665C273.496 298.78 272.174 301.98 272.116 303.874C272.217 304.336 272.419 304.754 273.545 305.637" stroke="white" stroke-width="2" stroke-linecap="round"/>
<path d="M407.644 163.738C407.883 164.305 409.723 166.99 417.435 178.405C420.112 182.368 422.171 187.55 423.979 191.877C427.213 199.617 428.508 205.212 428.987 208.738C429.63 213.473 428.01 215.368 427.01 219.397C425.502 225.466 428.154 228.177 429.573 230.546C430.13 231.476 432.369 234.303 435.529 238.279C437.22 240.406 440.481 243.843 445.215 249.206C451.723 256.579 454.199 261.952 455.546 264.838C457.261 268.511 462.262 277.949 464.637 282.02C465.737 283.907 467.491 285.513 469.231 287.379C470.813 289.075 472.035 290.463 473.449 291.868C475.381 293.789 477.559 295.123 479.547 296.403C481.422 297.61 482.992 298.972 484.677 300.202C486.505 301.537 488.175 303.214 489.829 304.344C491.604 305.556 494.743 307.884 498.038 310.137C500.685 311.947 502.767 313.251 504.617 313.982C508.408 315.48 513.896 317.418 518.605 319.575C523.215 321.687 526.171 325.247 527.492 327.555C528.536 330.102 529.176 332.086 529.766 333.968C529.879 334.43 529.979 334.91 530.083 335.316" stroke="white" stroke-width="2" stroke-linecap="round"/>
<path d="M429.479 205.149C429.819 205.623 432.895 209.218 435.969 212.884C441.519 219.504 444.109 223.932 445.55 226.062C448.874 230.261 452.542 234.869 453.558 236.52C453.961 237.22 454.136 237.641 455.009 238.785" stroke="white" stroke-width="2" stroke-linecap="round"/>
<path d="M419.675 161.974C420.232 162.144 422.494 163.476 428.997 167.676C434.032 170.927 442.685 176.304 448.129 179.663C453.573 183.021 455.569 184.16 459.061 186.565C467.593 192.445 473.359 196.873 474.959 197.83C477.588 199.403 479.404 200.181 484.191 203.183C487.405 205.198 490.29 207.635 492.384 209.503C493.138 210.176 497.111 213.369 502.834 218.392C505.98 221.154 508.945 224.59 512.344 228.728C514.104 230.87 515.344 233.173 517.148 236.63C519.081 240.334 521.095 244.819 523.12 249.268C524.684 252.702 525.754 255.311 527.186 258.493C529.529 263.699 530.873 269.295 531.617 275.319C533.549 290.962 531.436 293.601 531.23 295.8C531.03 297.934 530.797 301.445 530.421 306.539C530.213 312.994 530.197 317.097 530.266 319.888C530.29 322.235 530.29 326.47 530.29 330.834" stroke="white" stroke-width="2" stroke-linecap="round"/>
<path d="M457.354 194.95C457.455 195.05 459.694 197.639 464.269 203.026C469.253 208.895 473.264 214.766 475.809 219.382C477.565 222.568 479.542 226.849 482.519 232.837C484.036 235.889 485.266 239.113 486.629 243.54C489.68 253.45 491.22 261.193 491.954 264.401C492.936 268.693 495.786 272.895 502.836 279.157C506.998 282.854 510.25 284.905 512.263 286.79C515.266 289.604 518.121 293.11 520.261 295.984C523.708 300.613 525.418 307.966 526.317 311.95C527.032 315.526 527.704 317.482 529.465 321.73C529.852 322.656 530.017 323.091 530.434 324.056" stroke="white" stroke-width="2" stroke-linecap="round"/>
<path d="M530.471 326.459C530.471 326.425 530.014 320.846 529.261 312.083C528.927 308.203 528.096 303.056 526.566 294.157C525.799 289.694 524.459 285.451 522.602 279.785C520.746 274.12 518.262 267.191 516.747 262.385C514.479 255.189 513.664 250.559 512.454 246.963C511.509 244.155 509.719 241.735 506.984 238.04C502.782 232.365 499.234 227.207 497.23 224.297C496.36 223.033 495.682 222.278 492.221 219.075C488.76 215.871 482.51 210.261 478.988 207.196C474.03 202.88 467.705 200.537 460.66 196.349C457.771 194.632 455.542 193.077 452.874 190.86C448.77 187.451 444.665 184.443 442.645 182.601C438.006 178.157 429.902 171 427.041 169.11C426.516 168.781 426.096 168.543 425.476 168.059" stroke="white" stroke-width="2" stroke-linecap="round"/>
<path d="M409.08 127.68C409.146 127.68 409.545 127.927 413.523 131.01C417.155 133.824 423.992 139.26 428.99 143.356C437.027 149.939 440.974 153.482 442.903 154.788C446.605 157.295 454.927 158.283 462.337 158.795C468.473 159.218 476.573 159.685 480.591 159.347C481.452 159.034 482.356 158.569 483.275 158.021C483.719 157.766 484.121 157.557 484.913 157.382" stroke="white" stroke-width="2" stroke-linecap="round"/>
<path d="M409.177 127.49C409.16 127.49 409.143 127.49 408.902 127.425C408.661 127.359 408.198 127.228 407.549 126.875" stroke="white" stroke-width="2" stroke-linecap="round"/>
<path d="M561.55 266.656C561.386 266.186 558.723 261.719 556.41 257.74C555.038 255.381 552.73 252.209 551.368 249.724C549.637 246.567 548.045 244.734 543.051 240.378C539.717 237.47 536.229 234.861 533.921 232.91C530.679 230.168 529.445 228.039 526.656 224.75C521.477 218.64 518.723 216.896 515.391 212.644C511.395 207.544 508.892 204.974 506.401 201.383C504.198 198.206 502.422 196.145 500.028 193.701C497.444 191.064 494.884 190.164 491.626 188.486C489.14 187.205 487.213 186.704 485.249 185.605C483.329 184.53 481.168 183.477 478.044 182.46C475.973 181.787 473.157 180.634 468.845 178.595C466.17 177.33 461.137 173.878 455.795 170.524C454.404 169.651 449.624 166.338 442.603 161.666C437.43 158.224 434.653 155.924 432.667 154.439C429.114 151.781 426.7 147.871 423.526 143.45C421.78 141.017 420.259 139.501 418.415 137.656C416.985 136.31 415.098 134.464 413.358 132.677C412.659 131.957 412.335 131.616 411.702 131.018" stroke="white" stroke-width="2" stroke-linecap="round"/>
<path d="M569.241 234.143C568.5 233.998 566.43 233.181 563.761 231.739C559.972 229.692 555.719 227.428 551.633 225.438C542.419 220.951 538.438 218.601 535.981 217.729C531.432 216.115 528.936 214.853 522.29 211.572C518.63 209.765 517.131 208.642 515.048 207.203C513.201 206.218 511.687 205.644 510.68 205.171C510.183 204.941 509.716 204.731 508.663 204.174" stroke="white" stroke-width="2" stroke-linecap="round"/>
<path d="M551.935 209.651C551.507 209.355 548.974 207.378 545.672 204.521C543.57 202.701 541.498 201.651 538.588 200.662C534.596 199.306 529.077 199.255 524.402 199.367C518.722 200.507 514.704 201.337 511.106 201.864C509.447 201.968 506.756 202.056 503.983 202.146" stroke="white" stroke-width="2" stroke-linecap="round"/>
<path d="M549.231 205.914C548.566 205.695 540.736 201.49 534.61 197.857C531.116 195.786 524.297 192.648 521.085 190.679C516.993 188.17 513.405 186.568 510.328 185.442C501.821 182.328 494.859 179.977 489.749 177.727C486.887 176.467 484.573 175.313 482.642 174.404C479.457 172.905 472.731 169.908 465.058 166.855C460.065 164.869 455.906 163.557 448.511 160.921C442.802 158.887 437.635 156.634 433.845 155.144C432.834 154.759 431.989 154.486 431.347 154.208C430.705 153.931 430.291 153.657 429.741 153.312" stroke="white" stroke-width="2" stroke-linecap="round"/>
<path d="M357.654 118.554C357.911 119.134 363.417 125.471 367.515 129.698C371.053 133.347 373.821 134.794 383.374 143.176C386.654 146.054 389.07 149.53 393.391 157.526C395.059 160.612 397.09 165.157 398.45 168.701C398.885 169.833 398.653 171.313 398.869 175.249C399.343 183.863 399.196 190.216 398.828 192.254C398.234 195.547 397.57 198.982 396.69 202.889C394.398 213.061 392.209 216.734 391.121 220.611C390.409 223.147 388.458 230.387 385.871 239.269C384.789 242.983 384.82 247.512 384.862 253.935C384.906 260.692 388.742 267.148 390.973 270.317C391.843 271.552 397.609 274.711 405.784 279.124C413.581 283.333 421.109 288.822 424.53 290.567C433.158 294.968 439.7 298.603 443.895 300.406C450.599 303.287 454.989 304.756 457.998 305.777C459.697 306.353 465.015 308.701 472.149 311.722C474.784 312.837 475.445 313.034 479.055 314.604C482.665 316.174 489.211 319.092 494.496 321.376C503.575 325.299 508.024 327.085 509.103 327.671C513.012 329.794 522.774 336.913 526.89 340.376C528.074 341.868 529.073 343.028 529.553 343.793C529.74 344.197 529.813 344.633 529.888 345.082" stroke="white" stroke-width="2" stroke-linecap="round"/>
<path d="M427.579 217.302C426.968 215.958 425.219 212.54 423.739 211.35C421.855 209.836 419.185 209.953 413.361 209.734C410.367 209.621 408.755 212.206 407.13 213.311C406.339 213.736 405.525 214.11 404.812 214.572C404.502 214.866 404.299 215.28 403.738 215.83" stroke="white" stroke-width="2" stroke-linecap="round"/>
<path d="M383.481 19.266C382.784 19.3855 378.767 21.1146 374.934 23.3451C371.496 25.3459 369.661 27.3964 367.405 28.8531C364.861 30.4962 361.405 31.2546 359.526 31.8957C357.45 32.6043 354.948 34.9029 352.821 36.7302C350.392 38.8174 348.826 40.1539 347.545 41.4994C346.409 43.0144 344.485 45.0068 342.753 46.7209C342.401 47.0779 342.085 47.4074 341.701 47.7934" stroke="white" stroke-width="2" stroke-linecap="round"/>
<path d="M418.058 23.1339C417.495 23.1339 414.81 23.596 407.532 27.8967C402.974 30.5898 396.661 34.6687 393.426 36.3606C391.7 37.2633 389.755 37.9046 387.51 39.385C381.813 43.1417 377.321 47.2631 375.457 48.7143C374.65 49.3426 373.92 49.913 373.369 50.6175C372.093 52.2514 372.325 55.8207 370.131 59.9303C368.67 62.4364 367.254 64.8177 366.551 65.8645C366.224 66.3452 365.956 66.723 365.297 66.7002" stroke="white" stroke-width="2" stroke-linecap="round"/>
<path d="M398.266 21.7113C397.351 21.7113 389.566 23.1226 385.044 24.4559C382.995 25.0602 381.903 27.3779 378.029 32.1109C376.127 34.434 373.919 37.8736 370.439 42.5221C367.935 45.8669 365.35 47.3339 363.406 48.6882C362.553 49.0584 361.513 49.2553 359.823 49.3402C358.732 49.3824 357.167 49.4228 355.554 49.4644" stroke="white" stroke-width="2" stroke-linecap="round"/>
<path d="M444.452 20.5662C443.946 20.6038 441.523 21.2218 439.354 22.3344C434.326 24.9139 422.812 29.6356 419.468 31.3897C416.953 32.7091 413.661 35.1071 409.965 36.8719C408.299 37.4316 406.033 38.2262 403.407 39.1579C402.273 39.5138 401.544 39.6321 399.874 39.93" stroke="white" stroke-width="2" stroke-linecap="round"/>
<path d="M421.676 32.0424C420.996 32.3719 418.2 34.1494 407.977 44.2339C403.95 48.2064 403.405 50.6931 402.45 52.4648C401.372 54.466 400.018 56.1325 399.023 57.6494C398.8 58.044 398.605 58.4447 398.404 58.869C398.203 59.2933 398.002 59.7292 397.378 59.9404" stroke="white" stroke-width="2" stroke-linecap="round"/>
<path d="M328.018 70.4405C328.427 69.9159 330.981 67.0778 333.584 64.8879C335.776 63.0445 337.022 60.9015 338.71 58.4203C340.481 55.8175 344.931 51.8095 353.422 43.9723C359.337 38.5124 363.834 36.607 366.662 34.9433C368.383 33.9304 370.733 32.9753 372.964 31.9531C373.789 31.4371 374.604 30.8893 375.537 30.2166C376.039 29.8263 376.597 29.3363 378.153 28.0572" stroke="white" stroke-width="2" stroke-linecap="round"/>
<path d="M407.028 22.4597C406.436 22.5519 404.42 23.2785 401.83 24.3932C399.52 25.3876 396.984 26.81 394.799 28.1544C390.78 30.6279 385.668 34.6316 381.785 37.8392C377.4 41.461 375.216 43.6693 373.117 45.4564C369.587 48.4611 365.555 49.698 363.802 51.2455C361.458 53.3152 356.14 57.2879 351.682 60.1038C346.63 63.2947 338.833 65.9235 335.492 67.8849C333.145 69.1557 331.616 69.8025 330.587 70.0733C329.984 70.1769 329.219 70.2116 328.506 70.2474" stroke="white" stroke-width="2" stroke-linecap="round"/>
<path d="M308.999 88.1781C308.999 88.8876 306.795 94.8186 304.952 98.6776C303.207 102.334 302.434 107.497 301.562 110.922C300.596 114.713 299.506 117.227 298.635 119.965C297.926 122.488 297.642 124.05 297.461 125.006C297.381 125.478 297.324 125.926 296.564 126.826" stroke="white" stroke-width="2" stroke-linecap="round"/>
<path d="M254.164 290.771C254.164 290.816 256.78 295.527 261.534 305.257C263.938 310.177 265.249 315.553 266.777 323.417C268.304 331.281 269.733 341.595 270.525 357.67C271.318 373.745 271.431 395.268 269.669 424.07C267.906 452.872 264.264 488.3 262.308 507.044C260.248 526.779 259.949 528.825 259.761 530.801C259.025 535.197 257.864 542.928 257.08 553.132C256.736 559.275 256.504 567.375 256.112 574.66" stroke="white" stroke-width="2" stroke-linecap="round"/>
<path d="M300.356 272.44C300.033 273.202 297.508 277.128 292.682 285.436C290.73 288.797 290.169 291.3 289.317 293.605C287.925 297.371 285.572 305.897 282.565 319.904C278.955 336.724 277.696 346.978 277.432 349.223C276.991 352.975 277.262 355.993 277.717 367.786C278.146 378.913 278.784 400.49 279.499 421.094C280.215 441.698 280.939 460.677 281.179 473.143C281.419 485.609 281.152 490.988 279.866 501.632C278.581 512.275 276.286 528.019 275.056 541.696C273.827 555.372 273.732 566.504 273.634 577.973" stroke="white" stroke-width="2" stroke-linecap="round"/>
<path d="M273.703 297.684C273.666 298.108 273.335 300.234 273.116 308.094C273.066 309.896 272.963 310.73 272.622 317.198C272.281 323.666 271.698 335.742 271.523 344.107C271.348 352.471 271.599 356.758 271.746 359.09C271.929 361.669 272 362.2 272.064 362.767C272.093 363.058 272.115 363.356 272.138 363.466" stroke="white" stroke-width="2" stroke-linecap="round"/>
</svg>
