<svg width="130" height="449" viewBox="0 0 130 449" fill="none" xmlns="http://www.w3.org/2000/svg">
<path d="M34.8179 242.6C34.8179 242.198 34.3272 240.184 33.1627 237.988C32.3091 236.379 30.9378 235.073 29.8498 234.031C28.8354 233.059 26.746 233.088 25.1527 232.938C21.9955 232.64 20.7944 233.788 19.8917 234.485C18.9518 235.211 18.413 236.233 18.166 237.296C17.9082 238.405 17.4986 239.487 16.4104 241.098C15.6591 242.21 14.2778 242.362 13.2827 242.625C12.9008 242.726 13.8125 243.437 14.3882 243.75C15.6417 244.431 17.5582 243.898 18.656 243.507C19.7097 243.132 20.7704 242.653 21.6956 241.907C22.7333 241.071 22.9775 239.883 23.326 239.501C23.6692 239.126 24.3503 239.233 24.9129 239.325C25.9939 239.503 26.4291 241.494 26.9334 242.824C27.1402 243.37 27.6134 243.771 28.054 244.097C28.9161 244.735 31.135 243.996 33.8304 243.902C37.4531 243.777 38.9142 244.028 40.6693 244.161C42.5388 244.2 44.033 244.096 44.6369 243.873C44.924 243.767 45.1721 243.673 45.6935 243.306" stroke="white" stroke-width="2" stroke-linecap="round"/>
<path d="M45.3656 243.306C45.7137 243.2 48.125 241.876 49.7684 240.668C50.7923 239.916 50.6709 237.263 50.8837 235.497C51.1045 233.664 52.4753 231.806 53.29 230.422C54.1227 229.008 55.5651 228.066 57.0527 227.373C58.8364 226.543 65.7599 226.904 69.1694 227.122C70.0009 227.175 67.5301 226.118 66.6775 225.368C65.6446 224.46 64.4448 223.473 63.4258 222.854C62.2256 222.124 60.7418 221.924 58.9783 221.336C57.6769 220.903 54.2202 220.739 52.0504 221.371C50.8865 221.709 50.0378 224.412 49.0663 226.107C48.4375 227.204 47.6447 228.457 46.6018 229.711C45.6156 230.896 44.2224 231.278 40.9091 231.774C32.4119 233.047 31.2375 232.096 29.7 232.237C26.3024 232.55 23.7359 231.526 21.8391 230.74C20.3946 230.142 19.5446 228.617 17.5042 226.296C15.6065 224.137 12.976 220.631 11.4146 219.007C9.34041 216.849 8.22518 215.939 7.0902 215.296C6.50004 215.07 5.81317 214.864 4.72947 214.703C4.01022 214.64 2.94723 214.613 1.91406 214.586" stroke="white" stroke-width="2" stroke-linecap="round"/>
<path d="M52.0376 220.358C52.0953 220.043 52.5345 218.95 53.1535 217.958C54.3798 215.992 53.4315 212.09 52.8022 210.19C51.9507 207.619 50.7027 205.646 49.9523 204.638C48.8703 203.185 46.4394 200.369 44.8228 198.231C43.3736 196.316 42.6639 192.993 42.378 190.818C41.7143 185.769 42.8028 183.985 43.0306 182.695C43.2315 181.556 44.0129 180.61 44.6382 179.447C44.9772 178.817 45.5715 178.47 45.7885 178.244C46.438 177.57 43.3692 178.428 42.3016 179.169C41.2375 179.908 40.3632 180.592 39.3889 181.238C38.4433 181.866 37.6746 182.612 36.8141 183.51C35.6412 184.735 35.4789 186.88 35.2883 189.12C35.1381 190.883 34.6092 192.95 34.568 199.947C34.5525 202.563 35.3985 204.361 36.0316 205.529C36.56 206.503 37.9582 207.796 39.2794 209.115C40.1117 209.947 40.8796 210.878 41.7022 211.788C42.4608 212.628 44.471 213.365 46.0116 213.835C47.4442 213.999 49.6454 214.068 51.4749 214.111C52.2789 214.133 52.8303 214.155 53.4306 214.207" stroke="white" stroke-width="2" stroke-linecap="round"/>
<path d="M50.9498 220.888C50.6113 221.011 49.6215 221.686 48.8514 222.553C47.472 224.106 44.6051 225.41 43.639 225.951C42.6212 226.522 41.0725 227.16 39.8197 227.843C38.9935 228.779 38.1216 229.848 37.1645 230.783C36.9381 230.984 36.7337 231.151 36.002 231.454" stroke="white" stroke-width="2" stroke-linecap="round"/>
<path d="M1 213.767C1.07235 213.446 1.58095 212.473 2.44754 211.616C3.27392 210.798 3.83224 209.601 4.76527 208.789C5.76407 207.919 6.98703 207.794 8.28964 207.821C8.87339 207.834 9.25518 208.442 9.66742 208.649C11.2085 209.42 10.5599 204.073 11.4634 202.923C11.8904 202.379 12.558 202.113 13.1936 201.876C13.8069 201.647 14.5151 201.695 15.6082 202.162C19.8735 203.988 21.0566 206.636 21.8897 207.982C22.8761 209.575 24.9056 212.222 26.5388 213.927C27.8193 215.265 28.9226 216.502 29.8733 217.3C30.8221 218.097 31.9592 218.805 33.3068 219.493C34.7487 220.23 36.2123 220.376 37.3615 220.526C38.517 220.678 39.6716 220.934 40.7692 221.26C41.2677 222.307 41.4076 223.844 41.4713 225.214C41.4418 225.317 41.3596 225.049 41.2748 224.773" stroke="white" stroke-width="2" stroke-linecap="round"/>
<path d="M39.8395 220.454C39.847 219.364 40.0889 216.659 40.3286 215.362C40.4091 214.927 40.3881 214.331 40.2756 213.978C39.8968 212.789 37.7454 213.058 36.4037 212.792C35.1785 212.549 34.0059 211.688 32.3258 209.796C31.161 208.484 30.7122 207.172 29.812 204.761C28.3638 200.883 27.7449 199.267 26.9018 198.22C25.1346 196.025 19.9587 194.628 17.8568 192.624C16.8933 191.705 14.0639 187.497 12.0596 184.659C11.8596 184.375 11.7356 184.131 11.586 184.155C10.5478 184.318 10.7542 186.114 10.5919 187.582C10.2929 190.286 10.2897 191.849 10.1541 193.778C9.92557 197.027 10.7565 198.256 11.5561 199.347C11.9707 199.772 12.4585 200.093 12.9774 200.386C13.2216 200.553 13.4271 200.757 13.6749 201.07" stroke="white" stroke-width="2" stroke-linecap="round"/>
<path d="M28.724 244.821C29.0269 244.983 30.0328 245.797 31.0162 246.678C32.0845 247.635 33.2829 248.909 34.1233 249.864C35.1709 251.054 35.7672 252.516 36.5311 254.573C37.1872 256.339 37.3526 257.915 37.516 258.839C37.699 259.874 37.7686 263.91 37.8116 269.419C37.8316 271.985 37.6317 272.848 37.6023 273.523C37.5719 274.222 37.4403 278.853 37.3759 285.582C37.3378 289.559 36.9988 291.889 36.5575 295.672C36.1674 299.015 35.8844 301.021 35.7495 302.775C35.5579 305.267 35.5201 307.21 35.2097 310.676C35.0951 311.956 34.817 313.61 34.5409 316.676C33.8704 324.121 33.9412 326.054 33.4115 329.672C33.1811 331.246 32.6912 333.61 32.1393 336.776C30.9104 343.825 30.2523 348.108 30.1028 349.695C29.7573 353.36 29.2858 357.453 28.8355 360.497C28.2396 364.525 28.3467 366.364 28.1835 367.523C28.023 368.664 27.7537 370.116 27.5288 371.756C27.0705 375.097 26.9185 377.084 26.8076 378.632C26.6279 379.999 26.462 381.693 26.0241 382.985C25.6155 383.424 24.8286 383.424 24.0178 383.424" stroke="white" stroke-width="2" stroke-linecap="round"/>
<path d="M43.7742 245.37C43.7742 246.11 43.6834 248.209 42.8993 252.164C42.4181 254.591 42.0054 257.194 41.9265 259.006C41.837 261.061 41.0613 265.779 40.5989 272.036C40.336 275.595 40.3223 282.156 40.2143 286.818C40.1062 291.481 40.0441 294.054 39.6321 296.729C38.7949 302.165 37.3117 306.378 36.6747 309.369C36.0546 312.281 35.9524 315.698 35.7654 318.806C35.6628 320.512 35.5979 321.38 35.5125 324.901C35.4361 328.055 35.3637 333.986 35.2872 337.668C35.1848 342.604 35.0609 344.165 34.9149 345.696C34.3172 351.961 33.8592 354.854 33.4405 356.915C32.84 359.872 32.3996 362.462 32.1668 364.103C31.8561 366.293 31.6853 367.421 31.0696 372.458C30.6403 375.97 30.252 380.471 29.9029 382.504C29.5559 384.448 29.2078 386.939 28.8019 389.861C28.6547 391.304 28.6267 392.667 28.6278 393.911" stroke="white" stroke-width="2" stroke-linecap="round"/>
<path d="M36.4553 212.846C36.4553 212.526 36.5096 211.569 36.6236 209.733C36.7137 208.282 36.473 207.768 36.2622 207.137C36.2158 206.196 36.0286 205.515 35.7717 204.893C35.7112 204.732 35.6561 204.549 35.5535 204.115" stroke="white" stroke-width="2" stroke-linecap="round"/>
<path d="M68.3011 1.776C68.1912 2.06767 67.4534 2.96135 66.0976 4.03125C63.7544 5.88031 61.9001 7.64882 60.6165 8.96276C58.9691 10.649 58.2342 11.6693 57.1853 12.5079C55.7726 13.6371 54.5986 15.1506 53.3609 16.651C51.2944 19.156 50.0906 21.28 48.8311 23.9746C47.7976 26.1859 48.5132 32.3196 48.7747 34.9655C48.9458 36.6956 50.0037 38.2212 50.5641 39.6482C51.3619 41.6794 51.4897 43.2382 52.0705 44.2426C52.7537 45.4239 53.8678 46.1103 54.6418 47.0885C55.9295 48.7158 57.1891 50.377 57.8643 51.8643C59.1488 54.694 58.494 58.8025 59.2222 60.6234C59.6874 61.7868 60.7632 62.861 62.3233 64.3637C64.4124 66.3758 70.8496 68.098 73.3663 68.6606C74.2581 68.6794 75.8476 68.7025 77.5873 68.6448C78.2379 68.5645 78.4173 68.3804 78.6534 67.9908" stroke="white" stroke-width="2" stroke-linecap="round"/>
<path d="M49.0363 37.085C48.623 37.3146 47.4089 38.0247 45.471 39.2157C44.1391 40.0343 42.9587 41.1217 41.381 43.114C39.2785 45.7691 38.5736 47.1415 37.4654 49.5971C36.8852 50.8827 36.6308 52.0759 36.1862 53.2898C35.7576 54.4603 35.5203 55.1716 35.5578 55.6874C35.7187 57.8992 39.0479 60.0547 40.1019 60.6378C41.7241 61.5354 43.6249 61.9723 46.8591 63.221C52.8338 65.5277 55.7478 65.3517 57.6073 65.1754C58.6698 65.0155 59.5272 64.8003 60.1065 64.5453C60.3802 64.4164 60.613 64.2886 61.2187 63.799" stroke="white" stroke-width="2" stroke-linecap="round"/>
<path d="M78.5584 68.8146C78.2475 68.4326 77.2182 66.9015 74.2683 61.935C72.0561 58.2106 70.7794 54.373 70.007 52.3168C69.5235 51.0298 68.9077 49.2854 68.2638 42.6163C68.0586 38.2883 67.939 37.3647 67.8658 36.7077C67.8356 36.297 67.8192 35.7293 68.1527 35.4229" stroke="white" stroke-width="2" stroke-linecap="round"/>
<path d="M81.0239 46.1964C81.0239 46.6885 80.8722 48.5315 80.4491 50.3108C79.9694 52.3281 79.6221 54.2339 79.3975 56.6497C78.5777 65.4695 79.2933 67.9113 79.415 68.9542C79.5962 70.5059 79.7545 72.7588 80.2432 74.0558C80.8897 75.7719 82.4699 77.0804 83.2066 78.0625C83.9299 79.0268 84.4869 80.0653 84.8247 81.0556C85.0789 82.054 85.2633 83.0786 85.3999 84.1049C85.4344 84.3639 85.4658 84.623 85.5301 84.8947" stroke="white" stroke-width="2" stroke-linecap="round"/>
<path d="M81.5955 45.6889C82.2432 46.5217 84.1995 48.7504 85.2077 49.7145C86.3741 50.8299 86.9645 52.5204 87.6765 54.0805C88.2539 55.3453 88.9529 57.0599 89.7393 59.4894C90.9073 63.0973 91.8804 65.3781 92.0173 70.7036C92.0916 73.5967 91.3632 75.5043 91.842 77.2859C92.2777 78.9074 93.8898 79.6859 94.5928 80.4905C96.007 82.1092 94.5363 87.0524 94.048 88.9009C93.5068 90.9497 93.2588 92.0345 92.9363 93.0613C92.5858 94.1775 92.0147 95.1998 91.4528 96.6904C90.3014 99.7449 90.567 101.192 90.4646 104.601C90.4091 106.451 90.3005 107.611 90.2452 109.791C90.1059 115.279 90.2581 119.496 90.702 121.451C92.299 127.827 92.5182 128.798 92.701 129.497C92.8062 129.887 92.9369 130.351 93.1539 131.003" stroke="white" stroke-width="2" stroke-linecap="round"/>
<path d="M68.6447 1.51013C69.1646 1.91099 71.1191 3.55854 72.9493 4.87141C73.9661 5.60082 75.5799 6.96131 78.4679 9.36145C80.0255 10.6558 82.6002 13.1219 84.5754 15.0903C87.9057 18.4091 89.5199 20.5858 90.4518 21.8813C92.5117 24.7449 92.9574 26.9705 93.5814 29.5368C93.898 30.8388 94.1203 31.934 94.6485 33.3992C94.791 33.7334 94.9162 33.9701 95.0287 34.2108C95.1412 34.4515 95.2373 34.6891 95.4624 35.0619" stroke="white" stroke-width="2" stroke-linecap="round"/>
<path d="M82.1583 46.2449C82.1583 45.8386 82.5131 42.693 82.6882 35.4138C82.7223 33.9968 82.6518 33.5501 82.7284 33.4324C83.1591 32.7708 83.5561 35.1692 84.3519 38.0032C85.1449 40.8272 86.2122 42.5838 87.0484 44.2701C87.746 45.677 88.0428 47.2207 88.1823 49.2058C88.2429 50.0693 88.2666 50.8852 88.1814 51.4607C88.0213 52.5425 86.4526 49.2504 85.5848 48.4064C84.5801 47.4292 83.8559 46.1877 83.3912 45.128C82.7895 43.756 83.4279 41.8872 83.6881 40.6908C83.7719 40.3052 83.7121 39.7778 83.8053 39.658C85.3026 37.7336 86.3877 46.8423 87.0184 47.9571C87.5291 48.8597 85.423 46.001 84.4812 45.2815C84.258 45.1109 84.0544 44.8884 84.0805 44.8968C85.1278 45.2306 85.6294 46.3574 86.0106 46.5765C87.2716 47.3011 84.9499 42.4836 84.4531 41.5336C84.2263 41.547 84.1814 42.6027 84.3204 43.8738C84.4594 44.3498 84.7373 44.4827 85.0858 44.6856" stroke="white" stroke-width="2" stroke-linecap="round"/>
<path d="M88.2141 44.5983C88.4331 44.207 89.6706 42.6795 90.888 41.3394C92.5212 39.5415 93.9066 38.2102 94.7663 37.4458C95.5945 36.7094 96.4522 35.9361 97.0637 34.8641C97.2109 34.6061 97.247 34.3351 97.3294 34.4172C97.7101 34.7967 98.243 36.7505 99.5815 39.5959C100.975 42.5591 102.019 44.6242 102.785 46.3826C105.036 51.5506 104.843 52.8213 104.804 56.2291C104.778 58.4921 102.349 60.4542 100.85 61.8632C99.6928 62.9507 98.4366 63.3671 97.0131 64.4163C95.7592 65.3405 94.9407 66.6538 94.3959 67.6682C93.7553 68.8607 93.2626 69.8256 92.8449 70.7555C92.7666 71.0036 92.7012 71.2598 92.666 71.6647C92.6307 72.0697 92.6275 72.6156 92.4205 73.2092" stroke="white" stroke-width="2" stroke-linecap="round"/>
<path d="M91.9585 77.793C91.9585 77.1212 92.1455 75.347 92.8535 74.5169C93.5539 73.6957 95.0278 73.5153 96.4563 72.9868C97.5576 72.5794 100.604 72.5369 103.511 73.0065C105.157 73.2724 106.13 73.817 108.631 74.2491C113.218 75.0413 114.812 74.0457 115.852 73.8553C116.902 73.6628 119.126 72.5076 122.101 70.8189C123.578 69.9804 124.456 69.117 125.911 67.4762C127.836 65.3035 128.266 63.838 128.676 62.8873C129.649 60.6285 122.763 57.7292 119.359 55.4322C117.632 54.2674 115.814 53.4268 112.678 52.3137C111.018 51.8889 109.522 51.8349 108.095 52.2885C107.749 52.4679 107.349 52.6857 106.375 53.1507" stroke="white" stroke-width="2" stroke-linecap="round"/>
<path d="M85.3904 83.7643C85.3904 84.0948 85.5434 85.288 85.8403 86.361C86.1909 87.6281 86.1233 88.6783 86.3903 92.8836C86.566 95.6524 86.8343 100.59 87.0032 103.484C87.2999 108.571 87.3842 110.945 87.4779 112.516C87.557 113.844 87.6648 116.288 87.7313 118.361C87.7766 119.775 88.125 124.588 88.4692 130.64C88.8843 137.939 88.2756 139.193 88.1163 140.28C87.8907 141.328 87.7497 142.089 87.6478 142.598C87.592 142.851 87.528 143.091 87.3407 143.489" stroke="white" stroke-width="2" stroke-linecap="round"/>
<path d="M88.314 195.685C88.2852 194.103 88.0647 189.73 87.631 187.779C87.2001 185.84 86.0086 182.008 84.6425 176.993C83.9986 174.629 83.2969 172.678 82.4792 170.413C81.6614 168.148 80.7085 165.64 79.8277 163.586C77.3002 157.693 76.015 155.552 74.8848 153.099C73.2015 149.446 71.5398 146.616 70.9653 145.037C69.3249 140.528 69.2008 138.24 68.8892 134.054C68.6867 131.334 68.7458 126.489 68.7887 123.847C68.8366 120.902 69.133 117.729 69.1473 113.244C69.1524 111.631 69.1887 111.365 69.2814 109.209C69.5475 103.016 69.4758 98.1894 69.0644 97.0693C68.5339 95.6251 67.0998 94.438 66.1706 93.7299C65.2976 93.0647 64.2652 92.6215 63.2949 92.065C63.05 91.9245 62.8025 91.782 62.8794 91.876C63.8209 93.0257 65.0834 93.5977 66.1025 94.2859C67.2133 95.0362 68.4011 95.7472 69.8921 96.8656C71.4795 98.0564 72.4802 99.8894 73.3718 101.959C74.6967 105.035 74.915 106.112 75.2575 107.124C75.6668 108.335 75.9882 110.001 76.5681 112.964C77.0473 115.412 77.7433 117.931 78.4843 120.249C78.8976 121.542 80.1261 125.382 81.2837 128.273C82.4021 131.066 83.0748 132.83 83.6416 134.383C84.5772 136.945 85.0662 138.054 85.7449 139.69C86.3163 141.068 86.5727 142.118 86.7293 143.897C86.8385 145.136 87.1171 146.203 87.5177 147.38C87.9896 148.767 88.585 149.776 89.1315 150.873C90.0373 152.69 90.9723 155.858 91.1467 158.055C91.5203 162.762 91.5607 165.43 91.6461 167.279C91.6771 167.95 91.9339 170.642 92.2076 174.749C92.4928 179.029 92.5092 183.561 92.3751 186.401C92.3017 187.958 91.3374 190.77 90.8088 192.668C90.4907 193.81 90.145 194.829 89.8313 195.559C89.6806 195.88 89.5471 196.101 88.9961 196.853" stroke="white" stroke-width="2" stroke-linecap="round"/>
<path d="M92.7183 128.444C92.7721 128.759 93.0958 129.949 93.2999 131.091C93.405 131.68 93.4119 132.298 93.4758 137.611C93.5362 142.631 93.4997 152.371 93.4872 157.533C93.4723 163.702 93.1413 165.101 93.0555 167.426C93.008 168.711 93.0088 169.725 93.0899 171.155C93.1093 171.498 93.136 171.76 93.1858 172.114C93.2356 172.469 93.3115 172.908 93.4832 185.859C93.6549 198.81 93.92 224.261 93.8947 241.192C93.8694 258.124 93.5457 265.766 93.4497 270.115C93.311 276.398 94.0029 277.662 94.6098 279.875C94.9639 281.166 95.4739 282.315 96.1811 283.348C96.5219 283.827 96.8002 284.29 97.0554 284.751C97.1972 284.984 97.364 285.214 97.9658 285.292" stroke="white" stroke-width="2" stroke-linecap="round"/>
<path d="M88.1451 194.922C88.1451 195.678 88.2156 197.783 88.4918 200.035C88.8616 203.05 88.9036 205.488 89.0213 207.097C89.103 208.213 89.0946 209.946 89.1476 214.733C89.2007 219.521 89.2811 227.312 89.3787 231.568C89.4875 236.314 89.7144 237.099 89.8506 238.382C89.9564 239.378 90.2193 241.066 90.4178 249.4C90.6164 257.734 90.7637 272.66 90.8144 280.655C90.869 289.259 90.7391 290.182 90.6863 290.829C90.5712 293.1 90.4969 295.616 90.4402 296.442C90.4168 296.986 90.4043 297.784 90.4196 298.651" stroke="white" stroke-width="2" stroke-linecap="round"/>
<path d="M90.9889 299.575C90.7221 298.898 89.012 295.709 87.676 293.227C87.415 292.742 87.0734 292.326 86.6601 292.033C83.9523 290.118 79.1583 291.554 78.4474 292.015C76.765 293.105 80.0898 296.941 82.561 302.527C84.007 305.797 85.389 307.98 88.5338 318.727C89.9006 323.398 90.9445 330.099 91.7459 337.999C92.5473 345.898 92.8173 354.861 92.8834 359.957C92.9495 365.053 92.8037 366.01 92.6331 371.162C92.4626 376.313 92.2718 385.628 92.2848 391.239C92.3016 398.478 92.9766 403.018 93.5421 408.451C94.4025 416.719 95.7948 420.721 96.3151 423.475C96.4333 424.203 96.5387 425.049 96.6169 426.744C96.6952 428.438 96.7432 430.956 96.7927 432.975" stroke="white" stroke-width="2" stroke-linecap="round"/>
<path d="M96.7928 432.975C96.7928 428.588 97.1644 417.768 97.6012 414.831C97.9194 412.69 98.2572 408.716 99.5285 398.833C101.186 385.946 101.677 382.89 102.419 380.325C103.239 377.491 104.431 375.008 106.164 371.519C107.638 368.552 109.409 366.395 110.348 364.749C110.544 364.406 109.93 364 109.313 363.817C106.6 363.013 104.657 362.989 103.292 363.197C101.392 363.487 102.002 367.029 101.213 369.331C99.8786 373.229 98.2999 376.427 96.6372 381.714C96.12 384.429 95.7484 390.883 95.3884 401.812C95.2491 407.564 95.198 413.735 95.2001 420.164" stroke="white" stroke-width="2" stroke-linecap="round"/>
<path d="M98.2796 375.601C98.2796 375.563 98.2796 371.934 98.3036 366.078C98.316 363.063 98.5236 354.972 98.6283 343.637C98.6825 337.76 97.9811 335.303 96.0621 325.047C95.2229 320.561 94.874 315.276 94.4097 311.756C94.1204 309.562 92.8078 306.205 92.2872 302.562C91.2683 295.432 93.5549 292.772 94.653 290.883C96.1063 289.577 97.0854 288.484 97.7426 287.745C98.0674 287.365 98.3748 286.973 98.8067 286.103" stroke="white" stroke-width="2" stroke-linecap="round"/>
<path d="M25.6216 383.074C25.6216 383.107 25.5962 383.982 25.401 386.646C25.2685 388.453 24.9176 391.175 24.6188 395.92C24.32 400.665 24.0455 407.348 23.6855 412.296C23.3256 417.243 22.8886 420.253 22.5265 423.671C22.1645 427.09 21.8907 430.825 21.6922 433.127C21.4937 435.429 21.3788 436.184 21.3119 437.324C21.2451 438.464 21.23 439.966 21.303 441.411" stroke="white" stroke-width="2" stroke-linecap="round"/>
<path d="M28.3 393.697C28.3 393.708 28.3 393.719 28.3185 395.014C28.3371 396.309 28.3741 398.888 28.0919 405.695C27.8097 412.502 27.2072 423.458 26.7543 429.912C26.3015 436.366 26.0166 437.986 25.83 439.174C25.4506 441.998 25.2805 442.906 25.2476 445.94C25.2734 446.616 25.3269 446.887 25.3821 447.272" stroke="white" stroke-width="2" stroke-linecap="round"/>
</svg>
