<svg width="39" height="86" viewBox="0 0 39 86" fill="none" xmlns="http://www.w3.org/2000/svg">
<path d="M14.2656 5.25552C13.9015 5.26612 12.9084 5.41079 12.2243 5.64894C11.7257 5.82254 11.2606 5.97547 10.7822 6.1967C10.106 6.50941 9.68403 6.92004 9.29239 7.30044C8.64632 7.92794 8.14705 8.5409 7.43086 9.52025C6.94265 10.1879 6.7769 11.3093 6.62119 11.9188C6.52961 12.2772 6.52965 12.7598 6.44526 13.8828C6.14637 17.8606 6.48947 18.5762 6.63817 19.5009C6.76381 20.2821 7.04752 21.0463 7.21556 21.5346C7.42938 22.1559 7.72022 22.5704 8.13498 23.0559C8.54113 23.5313 9.15743 23.9283 9.84579 24.3784C10.7092 24.9429 11.5143 25.2251 11.9649 25.4539C12.4981 25.7245 13.2182 25.8885 13.7797 25.9722C14.3993 26.0646 15.6393 26.0929 19.429 26.1099C21.3015 26.1184 22.5095 25.6633 23.1935 25.4569C23.8878 25.2474 24.4807 24.8768 24.9586 24.507C25.6144 23.9994 26.0263 23.6125 26.4559 23.2396C26.9456 22.8145 27.3319 22.2963 27.5877 21.7949C27.8994 21.1837 27.9878 20.5481 28.2984 19.3442C28.4035 18.9367 28.4384 18.6629 28.4602 17.5833C28.5155 14.8459 28.449 12.8159 28.3127 12.2634C27.8878 10.5402 27.3751 9.65227 26.9748 9.02807C26.6796 8.56782 26.3262 8.19539 25.993 7.79529C25.5727 7.29067 24.8763 6.72574 24.3961 6.38679C23.967 6.08398 23.4772 5.84097 23.0133 5.42021C22.6218 5.06511 22.1314 4.88237 21.7008 4.68453C21.2396 4.47265 20.7507 4.37059 20.2512 4.29035C18.9628 4.08341 16.3238 4.2414 15.5505 4.30743C15.0852 4.34716 14.6241 4.44025 14.1472 4.534C13.6765 4.62652 13.2067 4.77954 12.7647 4.95904C12.3283 5.13629 11.9438 5.42507 11.5132 5.60767C11.303 5.71534 11.0932 5.84771 10.882 5.98117C10.7774 6.04599 10.6778 6.1049 10.4168 6.32093" stroke="white" stroke-width="2" stroke-linecap="round"/>
<path d="M12.7677 11.3151C12.6873 11.4414 12.5094 11.7813 12.4699 12.0116C12.4269 12.2622 12.6405 12.4905 12.8079 12.6552C12.9775 12.8219 13.2643 12.7699 13.4848 12.6841C13.9198 12.5147 13.7969 11.9006 13.7472 11.6039C13.665 11.1127 12.8099 11.2333 12.3353 11.261C12.2196 11.2677 12.1369 11.3798 12.0907 11.481C11.9967 11.687 12.0941 11.9778 12.2037 12.2594C12.333 12.4962 12.5072 12.6601 12.7523 12.7429C12.8946 12.771 13.0732 12.771 13.3649 12.6916" stroke="white" stroke-width="2" stroke-linecap="round"/>
<path d="M21.7748 11.0723C21.7565 11.1983 21.5898 11.671 21.5085 12.131C21.4888 12.2426 21.615 12.3443 21.7207 12.4133C21.9357 12.5535 22.3643 12.5559 22.8256 12.5356C23.0165 12.5272 23.1105 12.4331 23.1799 12.3274C23.326 12.1046 23.3307 11.7673 23.2881 11.4649C23.2546 11.2265 22.9035 11.12 22.6017 11.0082C22.3504 10.915 22.1119 10.972 21.9084 11.0705C21.7043 11.1693 21.5442 11.3833 21.3888 11.5995C21.2461 11.7978 21.2427 12.0546 21.2807 12.2917C21.3944 12.5155 21.5664 12.7036 21.8001 12.8247C21.94 12.8687 22.1231 12.8771 22.3439 12.8706" stroke="white" stroke-width="2" stroke-linecap="round"/>
<path d="M14.2053 18.4855C14.2399 18.641 14.4101 19.1514 14.7766 19.7536C15.121 20.3195 16.3926 20.8699 17.3041 21.1897C18.073 21.4594 19.6419 21.0175 20.6107 20.5257C21.1188 20.2677 21.5117 19.8161 21.8947 19.1084C21.9658 18.929 21.9992 18.7842 22.0295 18.6525C22.0597 18.5208 22.0858 18.4067 22.1546 18.0918" stroke="white" stroke-width="2" stroke-linecap="round"/>
<path d="M16.4723 2.98097C16.3066 2.74105 15.7183 2.02394 14.9032 1.5231C13.7457 0.811815 11.7295 0.966233 10.4233 1.17453C9.51318 1.31967 8.1178 2.91773 6.88534 4.04562C5.27871 5.51595 4.87376 6.27487 4.44474 7.04339C3.66334 8.44314 3.82785 9.81074 4.15848 10.7832C4.98564 13.2162 5.57478 13.6489 5.64024 14.7037C5.73516 16.2333 5.61463 17.6682 5.37903 18.6539C5.08045 19.9032 4.49189 20.9616 3.99188 21.8708C2.98876 23.6948 2.87464 25.3627 3.09354 26.5494C3.30255 27.6824 4.88222 28.5678 5.30197 29.2015C5.64203 29.7149 5.6629 31.4183 5.39036 33.0107C4.91142 35.8091 4.44171 36.874 4.75675 37.638C5.20503 38.7252 5.70464 39.622 5.75174 40.2497C5.71949 40.3906 5.64938 40.5246 5.31787 40.9025C4.98635 41.2803 4.39557 41.8979 3.68734 42.4508" stroke="white" stroke-width="2" stroke-linecap="round"/>
<path d="M19.3414 3.26222C19.4079 3.11435 19.8348 2.59859 20.43 2.21874C20.9378 1.89473 22.7032 1.77474 24.4935 1.70914C25.2382 1.68185 25.6617 2.12391 26.2744 2.83799C26.7435 3.38468 26.7875 4.02367 27.1785 5.91623C27.5407 7.66888 27.5412 8.90707 27.8555 9.65452C28.5288 11.2555 31.349 12.6644 31.7252 13.2934C32.0748 13.8781 32.0143 15.0676 32.0223 16.1954C32.0261 16.7342 31.6143 18.226 31.0213 20.6911C30.5807 22.5224 30.6834 23.4717 30.5188 23.999C30.1744 25.1025 29.9567 25.9572 30.1343 26.337C31.0576 28.3111 33.6048 29.4687 34.0891 30.3554C34.4598 31.0341 34.1569 32.1629 32.7482 34.7728C32.2473 35.701 32.142 37.0084 32.64 39.9568C32.8057 40.9379 33.3449 41.4892 34.0012 41.9735C34.1794 42.0726 34.368 42.163 34.4927 42.2624C34.6174 42.3617 34.6723 42.4671 34.6508 42.3383" stroke="white" stroke-width="2" stroke-linecap="round"/>
<path d="M18.1264 3.22919C18.2784 3.20813 19.0425 3.04223 20.4179 2.99371C21.0702 2.97071 21.4208 3.88183 21.6645 4.42605C21.7658 4.65211 21.7951 4.91495 21.9188 5.13239C22.1954 5.61893 22.9198 5.80754 23.8989 6.07989C25.3737 6.49011 26.4812 6.6429 26.7114 6.72273C26.9463 6.80419 27.1119 6.99137 27.2141 7.22384C27.7073 8.34673 27.3523 10.3244 27.6388 10.8851C28.076 11.7407 28.9877 12.9698 29.2394 13.9091C29.8172 16.0657 28.4737 18.0272 28.4392 18.8285C28.4134 19.428 28.5503 20.0484 29.1054 21.2778C29.5262 22.2098 29.2227 23.5541 28.2985 25.5026C27.8621 26.4225 27.4953 27.0678 27.3217 27.5701C26.9434 28.6642 29.1311 29.8061 29.4778 30.2831C29.7073 30.5991 29.7234 31.359 29.6176 32.8455C29.4454 35.2666 29.008 36.9572 29.0336 37.3835C29.0681 37.9608 29.7589 38.4369 30.1804 38.9614C30.7653 39.6893 30.8586 42.9186 31.1738 44.3532C31.2679 44.4414 31.3594 44.5131 31.4546 44.5887C31.5498 44.6643 31.646 44.7417 31.8991 44.6098" stroke="white" stroke-width="2" stroke-linecap="round"/>
<path d="M16.5676 4.30746C16.3548 4.24249 15.8006 4.01468 15.3161 3.8478C14.3324 3.50907 12.49 3.6828 11.5005 3.97461C10.9042 4.1505 10.28 4.64557 9.6959 4.90604C9.08188 5.17987 8.62423 5.4447 8.47861 5.61652C8.08986 6.07521 7.62538 7.13516 6.14881 8.91676C5.60331 9.57494 5.14951 10.4695 4.2972 12.6769C3.69104 14.2467 3.76431 15.9757 3.76059 17.1328C3.75886 17.6682 4.17146 18.8546 4.91067 20.8502C5.86491 23.4263 6.53615 24.1904 6.90461 24.8358C7.22668 25.3999 7.44287 26.2321 7.49389 28.1817C7.52827 29.4956 7.03998 30.0433 6.63961 32.2116C6.52357 32.84 7.48399 33.5535 8.66283 34.5922C9.62422 35.4393 10.0356 36.0503 10.1683 36.3247C10.3146 36.6276 10.3075 37.4299 10.2907 38.4444C10.2807 39.0503 9.84954 40.0354 9.20632 41.4752C8.37403 43.3382 8.1107 43.8527 8.10761 44.7231C8.1285 44.9431 8.17202 45.103 8.22266 45.2386C8.27331 45.3742 8.32977 45.4807 8.58119 45.6931" stroke="white" stroke-width="2" stroke-linecap="round"/>
<path d="M18.2773 26.9785C18.2773 27.0346 18.2958 28.3703 18.3428 30.4444C18.4095 31.3996 18.4809 31.7764 18.5671 32.1439C18.6212 32.3283 18.6962 32.5084 18.8244 33.0194" stroke="white" stroke-width="2" stroke-linecap="round"/>
<path d="M18.1343 70.1714C18.1343 70.1854 18.1266 71.0693 17.8875 73.566C17.5046 77.5633 16.583 80.301 16.1174 81.1768C14.9501 83.3726 13.9086 83.8238 13.193 84.1178C12.3694 84.4562 11.5266 84.4041 10.1052 84.4421C9.72523 84.4523 9.39053 84.4702 9.20385 84.3818C9.01717 84.2933 8.98864 84.0972 9.00331 83.8951C9.01798 83.6931 9.07672 83.4909 9.19796 83.3561C9.72226 82.7732 10.7864 82.9008 11.7208 82.6617C12.1184 82.6274 12.7334 82.6267 13.1428 82.6694C13.5523 82.712 13.7376 82.7981 14.1494 83.0837" stroke="white" stroke-width="2" stroke-linecap="round"/>
<path d="M24.6924 70C24.8284 71.7651 25.5489 77.0553 26.0373 78.7599C26.4924 80.3484 27.3048 81.2701 27.9664 81.9751C28.8327 82.8985 29.764 83.0644 31.3608 83.5105C32.8446 83.9249 34.5996 83.6706 34.9585 83.5385C35.1382 83.4723 35.2747 83.3207 35.35 83.1097C35.4254 82.8986 35.4256 82.6105 35.3326 82.4419C34.5046 82.191 33.5703 82.2474 33.1627 82.3731C32.965 82.4416 32.7862 82.5195 32.3041 82.7713" stroke="white" stroke-width="2" stroke-linecap="round"/>
<path d="M19.5141 53.8628C19.4487 53.7705 18.8604 53.1375 17.9418 52.1113C17.4531 51.5653 17.0223 50.879 16.6338 50.247C16.2454 49.615 15.9388 49.0353 15.718 48.5524C15.3358 47.7164 15.2051 47.223 15.1403 47.0355C14.8468 46.1864 15.0887 44.781 15.1919 44.6984C15.4632 44.4811 16.1281 44.297 17.1407 44.0615C17.9232 43.8796 18.2319 44.1366 18.6137 44.373C19.2943 44.7945 19.7213 45.9059 19.8269 46.1287C19.9511 46.391 20.0176 46.5611 20.0758 46.627C20.2699 46.8472 20.3977 45.8871 20.6528 45.4958C20.9373 45.0595 21.1894 44.8941 21.5511 44.6744C21.891 44.468 22.2926 44.3685 23.4358 44.3536C24.1799 44.3439 24.4197 44.7636 24.5789 44.9421C24.7532 45.1376 24.8524 45.3973 24.9535 45.7607C25.076 46.2006 24.9353 46.8476 24.603 47.4299C24.3954 47.7938 23.9552 48.4075 23.6074 48.9031C23.01 49.7545 22.6922 50.1525 22.432 50.5559C22.2049 50.9081 21.7812 51.5572 21.4961 51.9807C20.8169 52.9896 20.4191 53.5506 20.2537 53.7773C20.1643 53.8998 20.0973 54.0368 20.0198 54.1265C19.9849 54.1669 19.92 54.1529 19.8691 54.1347C19.7736 54.0836 19.6611 54.0083 19.5284 53.9247C19.4621 53.8822 19.3978 53.8396 19.2384 53.7014" stroke="white" stroke-linecap="round"/>
<path d="M17.9599 46.2347C17.8747 46.2202 17.5581 46.129 16.7018 46.0475C16.5601 46.034 16.616 45.9457 16.693 45.908C17.0191 45.7488 17.3583 45.8174 17.5634 45.9049C17.7918 46.0024 16.9842 45.8229 16.6971 45.6712C16.5328 45.5844 16.4575 45.4126 16.4244 45.2516C16.4063 45.1634 16.4129 45.0574 16.4508 45.0117C16.5256 44.9215 16.7159 45.0171 16.8566 45.0191C16.9254 45.0201 16.9827 44.9575 16.9358 44.9336C16.7553 44.8414 16.5055 44.9403 16.366 45.0005C16.229 45.0597 16.1095 45.1478 16.054 45.2726C15.9193 45.575 16.4817 45.8466 16.7227 46.1623C16.932 46.4364 16.9365 46.9723 16.9942 47.8476C17.0381 48.5124 17.4251 49.1392 17.6855 49.4001C17.9546 49.6697 18.1968 49.9491 18.4581 50.3664C18.7038 50.7585 18.8537 51.0642 19.0547 51.3372C19.1625 51.4836 19.3045 51.5842 19.4286 51.6684C19.4906 51.7105 19.5399 51.7658 19.5631 51.6481C19.7547 50.6776 19.3595 49.5595 19.3201 48.9081C19.272 48.1129 19.2742 47.8899 19.3159 47.7985C19.4689 47.4627 19.8346 48.4253 19.9662 48.502C20.1212 48.5922 20.3265 48.4889 20.4824 48.3992C20.8934 48.1631 21.6075 47.1797 21.9828 46.6704C22.0733 46.5477 22.1141 46.393 22.1854 46.2736C22.3434 46.0089 22.7443 46.1963 22.8831 46.1994C22.9514 46.2009 23.0082 46.2606 23.0473 46.3199C23.1261 46.4393 23.1228 46.6093 23.0919 46.7837C23.0199 47.1902 22.6792 47.4465 22.4655 47.7159C22.0909 48.188 21.7187 48.7817 21.4404 49.1466C21.1259 49.5589 20.8951 49.9497 20.6515 50.2671C20.5903 50.3415 20.5382 50.3996 20.4895 50.461C20.4408 50.5224 20.3971 50.5853 20.2114 50.5951" stroke="white" stroke-width="3" stroke-linecap="round"/>
<path d="M13.748 32.3285C13.8869 32.3285 14.5627 32.4764 15.8872 33.0332C16.8837 33.4522 17.7401 33.6366 18.3596 33.7213C19.2008 33.8363 20.7546 33.8186 22.4684 33.7884C23.7084 33.7666 24.0747 33.3659 24.4502 33.0884C24.5471 33.0072 24.6474 32.9141 24.7305 32.821C24.8136 32.7279 24.8764 32.6378 24.9966 32.4622" stroke="white" stroke-width="2" stroke-linecap="round"/>
<path d="M24.9966 32.4622C24.9966 32.4699 24.9996 32.7628 25.2628 34.3148C25.4783 35.5863 26.0399 37.8065 26.3302 39.0277C26.7257 40.6912 26.9713 41.2631 27.5141 43.4657C27.9795 45.3536 28.6802 48.8406 29.4353 51.9646C30.1904 55.0886 30.9403 57.7529 31.3557 59.1885C31.9119 61.1103 32.2865 61.9147 32.5235 62.4949C32.8084 63.1925 33.2614 64.0358 33.8031 65.0142C34.1551 65.65 34.7535 66.1618 35.2052 66.6186C35.3653 66.7805 35.2689 66.8973 35.1979 66.9894C34.8303 67.4661 34.0691 67.8318 33.1159 68.0652C31.423 68.4798 30.6486 67.6565 30.0697 67.2076C29.9421 67.1086 29.8435 67.0181 29.7716 67.0257C29.3382 67.0719 29.5349 68.12 29.2587 68.5172C28.9858 68.9098 28.3628 68.963 27.4428 69.2927C26.4812 69.6372 25.8052 69.148 25.35 68.9384C24.9373 68.7484 24.5292 68.2294 24.1161 67.8298C24.0198 67.7366 23.9205 67.6274 23.8607 67.6469C23.4324 67.7874 23.5483 68.5542 23.2754 68.9504C23.0077 69.3389 22.4867 69.5465 20.9919 69.9282C19.867 70.2154 19.1647 69.7273 18.723 69.4343C18.2931 69.149 18.0035 68.6317 17.7433 68.3687C17.2117 67.8316 16.3377 69.9234 15.8877 70.2696C15.3758 70.6636 14.5494 70.5476 13.9852 70.4271C13.4554 70.3138 13.1148 69.584 12.7615 69.1574C12.4716 68.8073 12.3143 68.3884 12.1869 68.2065C11.962 67.8857 12.1862 69.168 11.9485 69.6153C11.6781 70.1241 10.8293 70.1975 9.47958 70.2528C8.71322 70.2842 7.6978 69.5751 7.20329 69.2128C7.02419 69.0816 6.92828 68.858 6.89623 68.6921C6.79494 68.1679 7.83725 67.2471 8.332 66.4874C8.72899 65.8778 9.13533 65.1787 9.4867 64.5273C9.84159 63.8695 10.144 62.7903 10.4687 61.4242C10.8352 59.8825 10.8247 58.6742 10.8647 57.3934C10.943 54.8893 11.1116 53.1804 11.1786 52.8165C11.4032 51.598 11.3215 50.9728 11.3777 50.4482C11.4727 49.5624 11.5919 48.3082 11.7857 46.756C11.8421 46.305 11.9795 45.7802 12.3193 44.0365C12.586 42.6688 13.0036 40.3129 13.2306 38.5002C13.4714 35.4872 13.4685 33.9641 13.4398 33.3999C13.4282 33.1222 13.4224 32.862 13.3633 32.5076" stroke="white" stroke-width="2" stroke-linecap="round"/>
<path d="M11.148 49.0997C11.0147 49.1298 10.358 49.4132 9.56096 49.8564C8.6138 50.383 8.07133 50.526 7.48039 50.9977C6.82676 51.5193 5.83819 52.2468 5.34654 52.5221C4.93394 52.7531 4.53247 53.0459 4.13076 53.2496C4.03293 53.2992 3.90877 53.288 3.8123 53.2497C3.40233 53.0869 3.04759 52.643 2.68638 52.3672C2.60703 52.3066 2.58785 52.1929 2.61061 52.1913C3.1378 52.1563 3.50587 52.936 3.58281 53.0045C3.97185 53.3506 2.51786 52.2207 1.93927 51.824C1.72808 51.6682 1.549 51.533 1.37524 51.406C1.28974 51.3414 1.20969 51.2762 1.11316 51.1704" stroke="white" stroke-width="2" stroke-linecap="round"/>
<path d="M28.7128 45.9955C28.9312 46.1229 31.2952 48.1127 32.5942 49.3371C33.0988 49.8127 33.5904 50.49 34.0636 50.8381C34.3728 51.0654 34.6467 51.2431 34.8352 51.3243C35.3295 51.5372 36.7346 50.1849 37.4954 49.6972C37.3355 49.7641 37.0188 49.8951 36.7189 50.0201C36.5843 50.0864 36.4853 50.1582 36.2788 50.2298" stroke="white" stroke-width="2" stroke-linecap="round"/>
</svg>
