<svg width="39" height="97" viewBox="0 0 39 97" fill="none" xmlns="http://www.w3.org/2000/svg">
<path d="M28.7128 45.9955C28.9312 46.1229 31.2952 48.1127 32.5942 49.3371C33.0988 49.8127 33.5904 50.49 34.0636 50.8381C34.3728 51.0654 34.6467 51.2431 34.8352 51.3243C35.3295 51.5372 36.7346 50.1849 37.4954 49.6972C37.3355 49.7641 37.0188 49.8951 36.7189 50.0201C36.5843 50.0864 36.4853 50.1582 36.2788 50.2298" stroke="white" stroke-width="2" stroke-linecap="round"/>
<path d="M11.148 49.0997C11.0147 49.1298 10.358 49.4132 9.56096 49.8564C8.6138 50.383 8.07133 50.526 7.48039 50.9977C6.82676 51.5193 5.83819 52.2468 5.34654 52.5221C4.93394 52.7531 4.53247 53.0459 4.13076 53.2496C4.03293 53.2992 3.90877 53.288 3.8123 53.2497C3.40233 53.0869 3.04759 52.643 2.68638 52.3672C2.60703 52.3066 2.58785 52.1929 2.61061 52.1913C3.1378 52.1563 3.50587 52.936 3.58281 53.0045C3.97185 53.3506 2.51786 52.2207 1.93927 51.824C1.72808 51.6682 1.549 51.533 1.37524 51.406C1.28974 51.3414 1.20969 51.2762 1.11316 51.1704" stroke="white" stroke-width="2" stroke-linecap="round"/>
<path d="M14.4184 33.6763C14.4631 33.6832 14.8876 33.8894 15.915 34.314C16.6013 34.5977 17.6989 34.8142 19.0612 35.0015C20.4235 35.1888 22.0369 35.2878 22.8435 35.3416C23.6501 35.3955 23.601 35.4011 23.5757 35.435C23.5504 35.469 23.5504 35.5309 23.6431 36.6831C23.7359 37.8354 23.9213 40.076 24.0907 41.5687C24.2601 43.0615 24.4079 43.7383 24.4971 44.0452C24.5863 44.352 24.6125 44.2682 24.5904 44.0533C24.5684 43.8383 24.4972 43.4947 24.4508 42.9125C24.4045 42.3304 24.385 41.5201 24.4175 40.764C24.4499 40.0078 24.5348 39.3304 24.6125 39.1185C24.6901 38.9065 24.7579 39.1805 24.9446 39.7961C25.1312 40.4116 25.4346 41.3604 25.7109 42.6306C25.9871 43.9008 26.227 45.4636 26.3702 46.2482C26.5077 47.0014 26.5907 47.0224 26.5725 47.264C26.5401 47.6958 26.5008 48.2676 26.5192 48.777C26.5418 49.4025 27.0407 49.9314 27.1293 50.8638C27.1807 51.4052 27.1795 52.3451 27.2046 52.8968C27.2457 53.8026 27.3899 54.0776 27.4619 54.6527C27.4967 54.9307 27.7657 55.3993 28.1835 56.1532C28.4051 56.553 28.5938 57.016 28.8293 57.6931C29.0648 58.3703 29.328 59.2548 29.4684 59.7542C29.7274 60.6751 29.6257 61.2842 29.563 61.3393C29.3442 61.5312 28.9449 61.3263 28.6434 61.3564C28.1877 61.4019 27.9125 61.5233 27.68 61.7417C27.4395 61.9676 27.1832 62.1818 26.7465 62.4104C25.8762 62.8659 25.0557 63.0684 24.5386 63.1624C23.7956 63.2974 23.2449 63.3642 23.0165 63.4151C22.4209 63.5477 21.9944 63.9944 21.5926 64.0698C21.2008 64.1434 20.5074 64.1704 19.6584 64.2867C18.8917 64.3918 18.2427 64.2994 17.7896 64.2726C17.2054 64.238 16.5265 64.4985 15.7792 64.4217C15.083 64.3501 14.6153 63.9511 14.3976 63.894C13.8251 63.744 12.5361 63.7757 12.071 63.7541C11.888 63.7455 11.7474 63.8731 11.6452 63.8712C11.5516 63.8694 11.5527 63.7161 11.5437 63.6595C11.5292 63.568 11.35 63.8077 11.2324 63.8778C11.1261 63.941 11.2708 63.3684 11.6109 62.4876C11.77 62.0756 11.7833 61.6269 11.8128 61.033C11.8314 60.6585 11.9317 60.3674 12.1636 59.9032C12.5531 59.1236 12.8988 58.6232 12.8884 58.0156C12.8792 57.4808 12.8331 56.487 12.8166 55.9276C12.7974 55.2735 12.9272 54.604 13.0966 53.7027C13.212 53.0886 12.9291 52.4518 12.815 51.6413C12.6538 50.4963 12.7479 49.6708 12.8328 49.3015C12.9641 48.7307 13.1223 48.3004 13.1534 48.0659C13.1927 47.7705 13.1381 47.3567 13.0976 46.6731C13.0716 46.2327 13.0912 45.6 13.4348 44.1218C13.7784 42.6436 14.4599 40.3385 14.8311 38.9742C15.2023 37.6099 15.2426 37.2561 15.2633 36.9613C15.2997 36.4423 15.3076 36.0352 15.3609 35.9089C15.3828 35.857 15.4255 36.2319 15.2906 38.8841C15.1557 41.5362 14.8499 46.557 14.7248 49.6445C14.5998 52.7321 14.6648 53.7343 14.6837 54.2181C14.7002 54.6369 14.5804 54.8411 14.4483 55.5654C14.366 56.0165 14.3078 56.6466 14.2669 57.3815C14.2259 58.1163 14.2181 58.9392 14.2506 59.5956C14.3064 60.7207 14.5115 61.4596 14.6772 61.9214C14.7502 62.125 14.853 62.2454 14.9462 62.3045C15.3417 62.5553 16.028 61.9101 16.6623 61.7284C17.2277 61.5665 17.6396 61.8548 17.837 62.0175C18.0398 62.1847 18.2815 62.3365 18.4435 62.3705C18.6583 62.4156 18.8581 62.2154 19.6191 61.8298C20.045 61.614 20.505 61.7486 20.668 61.8008C20.8997 61.8751 19.978 61.5896 18.344 60.9893C17.3618 60.6285 17.0391 60.2275 16.9111 60.0007C16.6431 59.5257 18.0135 59.3544 18.8451 59.3033C19.1473 59.2847 19.3294 59.3694 19.4529 59.393C19.5692 59.4153 19.6728 59.3238 19.7612 59.2588C19.8512 59.1926 19.9086 59.0807 19.9281 58.9298C19.939 58.846 19.906 58.7446 19.6999 58.148C19.4938 57.5514 19.1037 56.4618 18.8779 55.8839C18.6521 55.3061 18.6023 55.273 18.5398 55.2905C18.1112 55.4101 17.7316 56.4786 17.5198 57.0321C17.4916 57.1058 17.4975 57.1691 17.6144 57.2576C17.7313 57.3462 17.9705 57.4615 18.1005 57.483C18.368 57.5273 18.8465 56.3655 19.1313 55.7031C19.2781 55.3617 18.7961 54.6502 18.6042 53.9774C18.4452 53.4198 18.6068 52.7894 18.8035 52.2362C19.0485 51.5468 19.317 51.1353 19.2369 50.6387C19.0414 49.4277 18.7336 48.3471 18.6307 48.4624C18.3482 48.779 18.4392 50.0276 18.3387 50.7768C18.1952 51.8477 18.0423 52.2655 17.9983 52.3732C17.993 52.3863 18.0048 52.3038 18.2484 50.6805C18.4919 49.0572 18.9623 45.8927 19.2084 44.0368C19.4546 42.1808 19.4623 41.7293 19.4251 41.336C19.3879 40.9426 19.3056 40.6212 19.2604 40.0237C19.2152 39.4262 19.2096 38.5623 19.2291 37.944C19.2595 36.9775 19.3394 36.5315 19.321 36.3746C19.3129 36.3064 19.2656 36.2693 19.1957 36.2515C19.0285 36.209 18.8119 36.3116 18.638 36.4824C18.5506 36.5683 18.5464 36.7196 18.5295 37.7151C18.5126 38.7106 18.504 40.5628 18.5902 41.9642C18.6764 43.3656 18.8576 44.26 18.951 44.6386C19.0444 45.0171 19.0444 44.8526 19.0898 44.5292C19.1352 44.2058 19.2259 43.7284 19.3471 43.2821C19.5801 42.424 19.9163 41.7627 20.4309 41.095C20.7669 40.6592 21.3871 40.1369 21.7439 39.7823C22.227 39.3021 22.3701 39.0372 22.4593 38.8292C22.7283 38.2022 22.442 37.0563 22.2857 36.7077C22.2611 36.6527 22.1914 36.6216 22.1619 36.6571C22.1324 36.6927 22.1292 36.8064 22.4227 38.1253C22.7161 39.4443 23.3062 41.9651 23.6664 43.7297C24.0265 45.4943 24.1389 46.4264 24.1958 46.932C24.2528 47.4376 24.251 47.4885 24.1819 47.605C24.1127 47.7215 23.9763 47.9021 23.8652 47.8303C23.7541 47.7585 23.6725 47.4288 23.6149 46.9134C23.4804 45.7111 23.4135 44.8881 23.2389 44.6822C22.8423 44.2145 22.4534 43.8451 22.3587 43.5557C22.3069 43.3971 22.3133 43.197 22.3068 44.9944C22.3004 46.7919 22.2978 50.5884 22.3548 52.7534C22.4117 54.9185 22.5284 55.3371 22.6287 55.6543C22.8864 56.4688 23.0543 56.6412 23.1297 56.6693C23.1649 56.6823 23.1827 56.5644 23.1812 55.8879C23.1797 55.2114 23.1555 53.9471 23.161 53.154C23.1664 52.361 23.2022 52.0776 23.3637 51.5828C23.7588 50.3719 24.1391 49.5572 24.1944 49.3425C24.22 49.2431 24.2267 49.1596 24.2319 49.0823C24.2372 49.005 24.2372 48.9355 24.1506 50.0165C24.064 51.0975 23.8909 53.3311 23.8067 54.5706C23.7225 55.81 23.7324 55.9876 23.9583 56.8488C24.1843 57.7099 24.626 59.2493 24.8857 60.1119C25.1893 61.1203 25.3214 61.2965 25.401 61.3178C25.5071 61.3462 25.5072 60.9235 25.5463 60.4138C25.5683 60.1267 25.5601 59.78 25.3347 58.694C25.1093 57.6081 24.6581 55.7929 24.389 54.5104C24.1199 53.2279 24.0465 52.533 23.9909 52.1184C23.9352 51.7039 23.8994 51.5907 23.8635 51.4954C23.8275 51.4002 23.7926 51.3262 23.7891 51.4429C23.7856 51.5596 23.8146 51.8692 23.9174 52.5253C24.0203 53.1813 24.1961 54.1745 24.294 55.2589C24.3919 56.3433 24.4065 57.4888 24.3973 58.2408C24.388 58.9928 24.3545 59.3165 24.191 59.8964C24.0275 60.4764 23.7352 61.3026 23.5825 61.6813C23.4298 62.0601 23.4255 61.9661 23.5251 61.5323C23.8029 60.3215 24.0567 59.404 24.0653 59.1689C24.0797 58.7763 23.4406 58.4138 22.9087 58.0597C22.8086 57.9931 22.7547 57.9462 22.7149 57.8688C22.6257 57.6954 22.6332 57.185 22.7055 56.2935C22.7963 55.1734 23.0667 54.4507 23.1629 54.1861C23.2883 53.8413 23.5235 53.4276 23.7537 53.0058C24.2002 52.1876 24.3312 51.1481 24.393 50.8324C24.4112 50.7391 24.5423 50.8393 24.6177 50.9407C24.767 51.1416 24.8749 51.6002 24.9944 52.3345C25.1374 53.2135 25.0297 53.7778 24.9356 54.5931C24.8483 55.3492 24.7141 56.804 24.6156 57.685C24.4669 58.83 24.4064 59.2966 24.4699 59.751C24.5421 60.0107 24.6956 60.3297 24.8526 60.6737" stroke="white" stroke-width="3" stroke-linecap="round"/>
<path d="M15 70C15 70.0103 15 70.0206 15.022 70.5789C15.044 71.1372 15.0881 72.2432 15.1108 72.8539C15.1418 73.6897 15.1663 74.1007 15.2021 75.1368C15.2277 75.8815 15.2749 77.0706 15.3004 77.8589C15.3299 78.9988 15.342 79.4194 15.3541 79.5647C15.3583 79.6515 15.3583 79.7649 15.3583 79.8785" stroke="white" stroke-width="2" stroke-linecap="round"/>
<path d="M25.9201 69.1532C25.9201 69.1586 25.9201 69.1641 26.0088 70.8254C26.0975 72.4868 26.2749 75.804 26.3621 77.5445C26.4493 79.2849 26.4409 79.3482 26.4366 79.4355C26.4322 79.5229 26.4322 79.6324 26.409 79.7456" stroke="white" stroke-width="2" stroke-linecap="round"/>
<path d="M14.2656 5.25552C13.9015 5.26612 12.9084 5.41079 12.2243 5.64894C11.7257 5.82254 11.2606 5.97547 10.7822 6.1967C10.106 6.50941 9.68403 6.92004 9.29239 7.30044C8.64632 7.92794 8.14705 8.5409 7.43086 9.52025C6.94265 10.1879 6.7769 11.3093 6.62119 11.9188C6.52961 12.2772 6.52965 12.7598 6.44526 13.8828C6.14637 17.8606 6.48947 18.5762 6.63817 19.5009C6.76381 20.2821 7.04752 21.0463 7.21556 21.5346C7.42938 22.1559 7.72022 22.5704 8.13498 23.0559C8.54113 23.5313 9.15743 23.9283 9.84579 24.3784C10.7092 24.9429 11.5143 25.2251 11.9649 25.4539C12.4981 25.7245 13.2182 25.8885 13.7797 25.9722C14.3993 26.0646 15.6393 26.0929 19.429 26.1099C21.3015 26.1184 22.5095 25.6633 23.1935 25.4569C23.8878 25.2474 24.4807 24.8768 24.9586 24.507C25.6144 23.9994 26.0263 23.6125 26.4559 23.2396C26.9456 22.8145 27.3319 22.2963 27.5877 21.7949C27.8994 21.1837 27.9878 20.5481 28.2984 19.3442C28.4035 18.9367 28.4384 18.6629 28.4602 17.5833C28.5155 14.8459 28.449 12.8159 28.3127 12.2634C27.8878 10.5402 27.3751 9.65227 26.9748 9.02807C26.6796 8.56782 26.3262 8.19539 25.993 7.79529C25.5727 7.29067 24.8763 6.72574 24.3961 6.38679C23.967 6.08398 23.4772 5.84097 23.0133 5.42021C22.6218 5.06511 22.1314 4.88237 21.7008 4.68453C21.2396 4.47265 20.7507 4.37059 20.2512 4.29035C18.9628 4.08341 16.3238 4.2414 15.5505 4.30743C15.0852 4.34716 14.6241 4.44025 14.1472 4.534C13.6765 4.62652 13.2067 4.77954 12.7647 4.95904C12.3283 5.13629 11.9438 5.42507 11.5132 5.60767C11.303 5.71534 11.0932 5.84771 10.882 5.98117C10.7774 6.04599 10.6778 6.1049 10.4168 6.32093" stroke="white" stroke-width="2" stroke-linecap="round"/>
<path d="M12.7677 11.3151C12.6873 11.4414 12.5094 11.7813 12.4699 12.0116C12.4269 12.2622 12.6405 12.4905 12.8079 12.6552C12.9775 12.8219 13.2643 12.7699 13.4848 12.6841C13.9198 12.5147 13.7969 11.9006 13.7472 11.6039C13.665 11.1127 12.8099 11.2333 12.3353 11.261C12.2196 11.2677 12.1369 11.3798 12.0907 11.481C11.9967 11.687 12.0941 11.9778 12.2037 12.2594C12.333 12.4962 12.5072 12.6601 12.7523 12.7429C12.8946 12.771 13.0732 12.771 13.3649 12.6916" stroke="white" stroke-width="2" stroke-linecap="round"/>
<path d="M21.7748 11.0723C21.7565 11.1983 21.5898 11.671 21.5085 12.131C21.4888 12.2426 21.615 12.3443 21.7207 12.4133C21.9357 12.5535 22.3643 12.5559 22.8256 12.5356C23.0165 12.5272 23.1105 12.4331 23.1799 12.3274C23.326 12.1046 23.3307 11.7673 23.2881 11.4649C23.2546 11.2265 22.9035 11.12 22.6017 11.0082C22.3504 10.915 22.1119 10.972 21.9084 11.0705C21.7043 11.1693 21.5442 11.3833 21.3888 11.5995C21.2461 11.7978 21.2427 12.0546 21.2807 12.2917C21.3944 12.5155 21.5664 12.7036 21.8001 12.8247C21.94 12.8687 22.1231 12.8771 22.3439 12.8706" stroke="white" stroke-width="2" stroke-linecap="round"/>
<path d="M14.2053 18.4855C14.2399 18.641 14.4101 19.1514 14.7766 19.7536C15.121 20.3195 16.3926 20.8699 17.3041 21.1897C18.073 21.4594 19.6419 21.0175 20.6107 20.5257C21.1188 20.2677 21.5117 19.8161 21.8947 19.1084C21.9658 18.929 21.9992 18.7842 22.0295 18.6525C22.0597 18.5208 22.0858 18.4067 22.1546 18.0918" stroke="white" stroke-width="2" stroke-linecap="round"/>
<path d="M16.4723 2.98097C16.3066 2.74105 15.7183 2.02394 14.9032 1.5231C13.7457 0.811815 11.7295 0.966233 10.4233 1.17453C9.51318 1.31967 8.1178 2.91773 6.88534 4.04562C5.27871 5.51595 4.87376 6.27487 4.44474 7.04339C3.66334 8.44314 3.82785 9.81074 4.15848 10.7832C4.98564 13.2162 5.57478 13.6489 5.64024 14.7037C5.73516 16.2333 5.61463 17.6682 5.37903 18.6539C5.08045 19.9032 4.49189 20.9616 3.99188 21.8708C2.98876 23.6948 2.87464 25.3627 3.09354 26.5494C3.30255 27.6824 4.88222 28.5678 5.30197 29.2015C5.64203 29.7149 5.6629 31.4183 5.39036 33.0107C4.91142 35.8091 4.44171 36.874 4.75675 37.638C5.20503 38.7252 5.70464 39.622 5.75174 40.2497C5.71949 40.3906 5.64938 40.5246 5.31787 40.9025C4.98635 41.2803 4.39557 41.8979 3.68734 42.4508" stroke="white" stroke-width="2" stroke-linecap="round"/>
<path d="M19.3414 3.26222C19.4079 3.11435 19.8348 2.59859 20.43 2.21874C20.9378 1.89473 22.7032 1.77474 24.4935 1.70914C25.2382 1.68185 25.6617 2.12391 26.2744 2.83799C26.7435 3.38468 26.7875 4.02367 27.1785 5.91623C27.5407 7.66888 27.5412 8.90707 27.8555 9.65452C28.5288 11.2555 31.349 12.6644 31.7252 13.2934C32.0748 13.8781 32.0143 15.0676 32.0223 16.1954C32.0261 16.7342 31.6143 18.226 31.0213 20.6911C30.5807 22.5224 30.6834 23.4717 30.5188 23.999C30.1744 25.1025 29.9567 25.9572 30.1343 26.337C31.0576 28.3111 33.6048 29.4687 34.0891 30.3554C34.4598 31.0341 34.1569 32.1629 32.7482 34.7728C32.2473 35.701 32.142 37.0084 32.64 39.9568C32.8057 40.9379 33.3449 41.4892 34.0012 41.9735C34.1794 42.0726 34.368 42.163 34.4927 42.2624C34.6174 42.3617 34.6723 42.4671 34.6508 42.3383" stroke="white" stroke-width="2" stroke-linecap="round"/>
<path d="M16.5676 4.30746C16.3548 4.24249 15.8006 4.01468 15.3161 3.8478C14.3324 3.50907 12.49 3.6828 11.5005 3.97461C10.9042 4.1505 10.28 4.64557 9.6959 4.90604C9.08188 5.17987 8.62423 5.4447 8.47861 5.61652C8.08986 6.07521 7.62538 7.13516 6.14881 8.91676C5.60331 9.57494 5.14951 10.4695 4.2972 12.6769C3.69104 14.2467 3.76431 15.9757 3.76059 17.1328C3.75886 17.6682 4.17146 18.8546 4.91067 20.8502C5.86491 23.4263 6.53615 24.1904 6.90461 24.8358C7.22668 25.3999 7.44287 26.2321 7.49389 28.1817C7.52827 29.4956 7.03998 30.0433 6.63961 32.2116C6.52357 32.84 7.48399 33.5535 8.66283 34.5922C9.62422 35.4393 10.0356 36.0503 10.1683 36.3247C10.3146 36.6276 10.3075 37.4299 10.2907 38.4444C10.2807 39.0503 9.84954 40.0354 9.20632 41.4752C8.37403 43.3382 8.1107 43.8527 8.10761 44.7231C8.1285 44.9431 8.17202 45.103 8.22266 45.2386C8.27331 45.3742 8.32977 45.4807 8.58119 45.6931" stroke="white" stroke-width="2" stroke-linecap="round"/>
<path d="M18.2773 26.9785C18.2773 27.0346 18.2958 28.3703 18.3428 30.4444C18.4095 31.3996 18.4809 31.7764 18.5671 32.1439C18.6212 32.3283 18.6962 32.5084 18.8244 33.0194" stroke="white" stroke-width="2" stroke-linecap="round"/>
<path d="M13.748 32.3285C13.8869 32.3285 14.5627 32.4764 15.8872 33.0332C16.8837 33.4522 17.7401 33.6366 18.3596 33.7213C19.2008 33.8363 20.7546 33.8186 22.4684 33.7884C23.7084 33.7666 24.0747 33.3659 24.4502 33.0884C24.5471 33.0072 24.6474 32.9141 24.7305 32.821C24.8136 32.7279 24.8764 32.6378 24.9966 32.4622" stroke="#7199B6" stroke-width="2" stroke-linecap="round"/>
<path d="M24.9966 32.4622C24.9966 32.4699 24.9996 32.7628 25.2628 34.3148C25.4783 35.5863 26.0399 37.8065 26.3302 39.0277C26.7257 40.6912 26.9713 41.2631 27.5141 43.4657C27.9795 45.3536 28.6802 48.8406 29.4353 51.9646C30.1904 55.0886 30.9403 57.7529 31.3557 59.1885C31.9119 61.1103 32.2865 61.9147 32.5235 62.4949C32.8084 63.1925 33.2614 64.0358 33.8031 65.0142C34.1551 65.65 34.7535 66.1618 35.2052 66.6186C35.3653 66.7805 35.2689 66.8973 35.1979 66.9894C34.8303 67.4661 34.0691 67.8318 33.1159 68.0652C31.423 68.4798 30.6486 67.6565 30.0697 67.2076C29.9421 67.1086 29.8435 67.0181 29.7716 67.0257C29.3382 67.0719 29.5349 68.12 29.2587 68.5172C28.9858 68.9098 28.3628 68.963 27.4428 69.2927C26.4812 69.6372 25.8052 69.148 25.35 68.9384C24.9373 68.7484 24.5292 68.2294 24.1161 67.8298C24.0198 67.7366 23.9205 67.6274 23.8607 67.6469C23.4324 67.7874 23.5483 68.5542 23.2754 68.9504C23.0077 69.3389 22.4867 69.5465 20.9919 69.9282C19.867 70.2154 19.1647 69.7273 18.723 69.4343C18.2931 69.149 18.0035 68.6317 17.7433 68.3687C17.2117 67.8316 16.3377 69.9234 15.8877 70.2696C15.3758 70.6636 14.5494 70.5476 13.9852 70.4271C13.4554 70.3138 13.1148 69.584 12.7615 69.1574C12.4716 68.8073 12.3143 68.3884 12.1869 68.2065C11.962 67.8857 12.1862 69.168 11.9485 69.6153C11.6781 70.1241 10.8293 70.1975 9.47958 70.2528C8.71322 70.2842 7.6978 69.5751 7.20329 69.2128C7.02419 69.0816 6.92828 68.858 6.89623 68.6921C6.79494 68.1679 7.83725 67.2471 8.332 66.4874C8.72899 65.8778 9.13533 65.1787 9.4867 64.5273C9.84159 63.8695 10.144 62.7903 10.4687 61.4242C10.8352 59.8825 10.8247 58.6742 10.8647 57.3934C10.943 54.8893 11.1116 53.1804 11.1786 52.8165C11.4032 51.598 11.3215 50.9728 11.3777 50.4482C11.4727 49.5624 11.5919 48.3082 11.7857 46.756C11.8421 46.305 11.9795 45.7802 12.3193 44.0365C12.586 42.6688 13.0036 40.3129 13.2306 38.5002C13.4714 35.4872 13.4685 33.9641 13.4398 33.3999C13.4282 33.1222 13.4224 32.862 13.3633 32.5076" stroke="#7199B6" stroke-width="2" stroke-linecap="round"/>
<path d="M9.36163 66.0935C9.50417 66.0972 10.2356 66.1801 11.3329 66.2977C12.7769 66.4524 13.7061 66.3397 13.9009 66.3211C14.4503 66.2686 15.0712 66.2402 16.362 66.2672C17.403 66.289 19.2273 66.3486 20.5365 66.2982C21.8458 66.2478 22.5845 66.091 22.9972 65.9986C23.4098 65.9061 23.4738 65.8828 24.1473 65.724C24.8208 65.5653 26.1019 65.2718 26.8905 65.0585C27.9517 64.7714 28.4277 64.4498 28.9145 64.1751C29.8708 63.7983 30.7515 63.4706 31.3159 63.2094C31.3858 63.1751 31.4464 63.1412 31.6198 63.0329" stroke="#7199B6" stroke-linecap="round"/>
<path d="M16.5924 33.7878C16.5924 33.8147 16.6058 34.7018 16.6286 36.282C16.6388 36.9889 16.6429 37.5031 16.6645 37.9339C16.6862 38.3648 16.7243 38.6967 16.7718 39.7696C16.8192 40.8424 16.8748 42.6461 16.9095 43.6203C16.9443 44.5946 16.9567 44.6848 16.946 45.1758C16.9353 45.6668 16.9011 46.5559 16.8175 47.6025C16.7339 48.6491 16.6018 49.8262 16.4955 50.7174C16.3891 51.6086 16.3124 52.1781 16.2561 52.8069C16.1997 53.4357 16.1661 54.1066 16.0776 55.0655C15.9891 56.0244 15.8468 57.251 15.7734 58.1033C15.6175 59.9147 15.6184 60.4148 15.5488 60.9469C15.4604 61.6231 15.3302 61.976 15.1481 63.2738C15.0278 64.1309 14.9902 64.5223 14.9475 64.8012C14.9341 64.9755 14.8837 65.1339 14.806 65.2579C14.7733 65.3199 14.7546 65.3801 14.7352 65.503" stroke="#7199B6" stroke-width="2" stroke-linecap="round"/>
<path d="M20.3472 34.9932C20.3353 34.9932 20.331 35.933 20.3722 37.5484C20.3994 38.6132 20.5771 39.1053 20.6312 40.8383C20.6821 42.4677 20.7572 45.6203 20.7947 47.4682C20.8322 49.316 20.8237 49.7637 20.8958 50.6074C20.968 51.4511 21.1209 52.6772 21.2099 53.3701C21.2989 54.0629 21.3193 54.1853 21.415 55.5073C21.5108 56.8293 21.6812 59.3474 21.777 60.6876C21.879 62.1148 21.9218 62.3806 21.9836 62.8071C22.2293 64.032 22.3418 64.8968 22.3652 65.214C22.3817 65.3543 22.4074 65.4528 22.4439 65.6019" stroke="#7199B6" stroke-width="2" stroke-linecap="round"/>
<path d="M23.6638 34.4643C23.6572 34.4643 23.7061 35.6748 23.8757 38.0321C23.9585 39.1818 24.1739 40.2249 24.3753 41.3502C24.5766 42.4756 24.7931 43.6483 24.9128 44.443C25.0891 45.6135 25.1096 46.4582 25.2048 47.2787C25.2483 47.6536 25.3129 47.9402 25.5681 49.5353C25.8233 51.1305 26.2751 54.0245 26.5917 55.799C26.9082 57.5736 27.0759 58.1409 27.2372 59.0935C27.3986 60.046 27.5485 61.3665 27.669 62.2346C27.7896 63.1028 27.8762 63.4786 27.9577 63.9881" stroke="#7199B6" stroke-width="2" stroke-linecap="round"/>
<path d="M9.90161 65.4042C9.97087 65.4042 10.1712 65.4335 10.4589 65.4937C10.9614 65.5988 11.5498 65.6263 11.9579 65.6539C12.1913 65.6697 12.5088 65.7049 12.9214 65.7289C13.4703 65.7961 13.9755 65.8344 14.142 65.8463C14.254 65.8504 14.4221 65.8504 14.5953 65.8504" stroke="#7199B6" stroke-linecap="round"/>
<path d="M14.44 65.7118C14.4427 65.7118 14.636 65.7118 14.9753 65.7224C15.2219 65.7301 15.3783 65.7765 16.2973 65.7858C17.1581 65.7945 18.8198 65.8119 19.8182 65.7914C20.8165 65.7709 21.1011 65.7121 21.3119 65.6751C21.8275 65.5844 22.0728 65.5676 22.4565 65.5449C22.658 65.533 22.8472 65.4375 23.8339 65.1641C24.1948 65.064 24.4101 64.9605 24.6208 64.9029C24.8434 64.8421 25.1721 64.7456 25.7149 64.5581C26.4957 64.2884 27.1426 64.1245 27.4239 64.0184C27.6937 63.9167 27.884 63.8523 28.1095 63.7431C28.369 63.6176 28.6759 63.4953 28.968 63.3449C29.321 63.1632 29.5836 63.0437 29.8621 62.8855C30.0819 62.7606 30.467 62.5556 30.7936 62.3731C31.3784 62.0395 31.6807 61.865 31.7558 61.8258C31.7945 61.8053 31.8346 61.7835 31.9257 61.7155" stroke="#7199B6" stroke-linecap="round"/>
<path d="M27.449 73.1373H27.4529" stroke="#EFF8FF" stroke-opacity="0.47" stroke-linecap="round"/>
<path d="M8.93564 65.3708C8.91021 65.4398 8.68697 65.8701 8.50447 66.2566C8.4194 66.4367 8.20708 66.6451 7.95751 67.0497C7.70592 67.4577 7.35276 67.9267 7.10821 68.0598C6.90848 68.1686 6.67068 68.2966 6.53302 68.4088C6.43688 68.4872 6.56381 68.6639 6.62014 68.7537C6.70682 68.8918 6.99952 69.0331 7.89823 69.5033C8.33207 69.7303 8.73082 69.7674 9.14934 69.8062C9.76172 69.8629 10.1891 69.8123 10.3682 69.7721C10.9195 69.6485 11.0925 69.4839 11.3529 69.1872C11.4454 69.0819 11.5273 68.9223 11.6626 68.5382C11.798 68.1541 11.9729 67.5414 12.0739 67.1641C12.2486 66.5117 12.2312 66.2649 12.2496 66.2048C12.4023 65.7077 12.2795 67.325 12.3317 67.667C12.3771 67.9641 12.4859 68.2629 12.6181 68.5902C12.7526 68.9232 12.9714 69.1888 13.2328 69.4339C13.5647 69.7451 13.9955 69.914 14.43 69.9933C14.9519 70.0884 15.3521 69.9904 15.5309 69.9328C15.855 69.8282 16.3851 69.5736 16.8554 69.2048C17.0974 69.015 17.166 68.7184 17.2967 68.0627C17.4417 67.3356 17.3752 66.8303 17.3563 66.6869C17.3424 66.5812 17.3122 66.4099 17.2961 66.3521C17.291 66.3336 17.3639 66.7966 17.5261 67.4226C17.6203 67.7862 17.9368 68.1977 18.3104 68.6928C18.4896 68.9303 18.7757 69.1095 19.2182 69.3631C19.6169 69.5916 20.0801 69.6374 20.5095 69.6258C20.7031 69.6206 20.8454 69.5804 21.1858 69.4878C21.5262 69.3952 22.06 69.2422 22.4275 69.1441C23.2341 68.9287 23.4497 68.8352 23.544 68.7014C23.5859 68.6419 23.5794 68.2778 23.592 67.7277C23.608 67.0257 23.588 66.4312 23.5312 66.2341C23.5208 66.198 23.5201 66.1575 23.5272 66.1627C23.7542 66.3276 23.7716 66.8143 23.8426 67.1086C23.9559 67.5787 24.2247 68.0301 24.3998 68.3105C24.5639 68.5732 24.8278 68.7475 25.1337 68.896C25.5841 69.1147 25.9791 69.1841 26.2638 69.2C26.8652 69.2337 27.3441 69.2248 27.5226 69.1992C27.9553 69.1371 28.338 68.9229 28.6794 68.7644C28.8631 68.6792 28.9772 68.5202 29.0725 68.4156C29.1384 68.3434 29.198 68.1899 29.2676 67.7411C29.3184 67.4134 29.3088 66.8719 29.2886 66.4717C29.2559 65.823 29.1275 65.4877 29.0711 65.3413C28.9441 65.0121 28.5556 64.5991 28.4761 64.3834C28.467 64.3585 28.6663 64.8794 29.0945 65.697C29.4443 66.3647 29.7774 66.7646 30.0017 67.0353C30.3911 67.5052 30.9775 67.6794 31.327 67.8156C31.4948 67.881 31.6652 67.8723 31.9181 67.9274C32.0813 67.963 32.4109 67.9463 32.7999 67.9543C33.2678 67.9639 33.6939 67.765 34.0006 67.5997C34.4447 67.3604 34.8171 67.0115 34.9871 66.8739C35.1144 66.7709 35.1776 66.6735 35.1991 66.6195C35.2609 66.4647 34.8443 66.497 34.6341 66.3341C34.5093 66.2373 34.4166 65.9729 34.1699 65.5248C34.0098 65.2342 33.7225 64.8483 33.5495 64.5872C33.3033 64.2157 33.1834 63.9014 33.0849 63.5944C33.0404 63.4355 32.9539 63.2213 32.7994 62.8957C32.7227 62.7421 32.6497 62.6119 32.5778 62.4694" stroke="#EFF8FF" stroke-opacity="0.47" stroke-linecap="round"/>
<path d="M30.5713 61.5442C30.5713 61.3882 30.479 60.8957 30.3088 60.6101C30.2385 60.4921 30.1979 60.2712 30.1553 59.9991C30.1364 59.8781 30.1408 59.7892 30.1919 59.9774C30.5446 61.2781 30.509 61.7295 30.4847 61.8369C30.4604 61.8801 30.4118 61.9003 30.3601 61.9021C30.3085 61.9038 30.2552 61.8865 30.2004 61.8687" stroke="#EFF8FF" stroke-opacity="0.6" stroke-width="0.5" stroke-linecap="square"/>
<path d="M17.44 80.1165C17.44 80.1234 17.4611 81.0852 17.5069 82.6921C17.5343 83.6517 17.5873 84.2233 17.6199 85.1424C17.6434 85.8075 17.7174 86.8736 17.7544 87.9088C17.8653 91.015 17.8489 91.7094 17.883 92.2767C17.9083 92.6967 17.9312 93.4249 17.9886 94.0472C18.0066 94.2425 18.0053 94.5416 17.9701 94.6992C17.8848 95.0802 17.1457 94.9314 15.9482 94.9493C13.9915 94.9786 12.7126 95.0167 12.5428 94.9921C12.3491 94.964 12.0414 94.9247 11.6646 94.7751C10.8214 94.4402 11.0173 93.2348 11.025 92.5063C11.0307 91.9716 11.5074 91.5883 11.8744 91.3021C12.203 91.0459 12.6134 91.0746 13.1413 90.9991C13.9924 90.8776 14.7209 91.0616 14.9601 91.1172C15.254 91.1856 14.879 89.8538 14.777 89.0437C14.6602 88.1155 14.5659 87.1042 14.4203 85.5193C14.3476 84.7272 14.333 84.0657 14.2457 83.2313C14.1337 82.1609 14.0912 81.6633 14.0487 81.2775C14.0067 80.8967 14.0043 80.617 13.9709 80.5144C13.96 80.4808 13.8955 80.5891 13.9303 80.6414C14.2872 81.1773 15.7848 80.5598 16.9438 80.4013C17.1856 80.3268 17.3176 80.2496 17.3848 80.1946C17.3844 80.1725 17.314 80.162 17.2416 80" stroke="#FCDF3C" stroke-width="2" stroke-linecap="round"/>
<path d="M24.6815 80.739C24.6828 80.7455 24.8341 81.6633 25.0745 83.1992C25.2181 84.1166 25.2602 84.6722 25.3903 85.5523C25.4844 86.1892 25.5925 87.2193 25.7386 88.2107C26.1769 91.1855 26.3235 91.8401 26.3872 92.3869C26.4343 92.7918 26.5407 93.4884 26.5871 94.0932C26.6016 94.283 26.6579 94.5665 26.7284 94.7071C26.8987 95.047 27.7427 94.7189 29.1576 94.4331C31.4697 93.9661 32.9842 93.6789 33.1798 93.6126C33.403 93.5369 33.7586 93.4218 34.1753 93.1846C35.108 92.6537 34.6562 91.5598 34.5136 90.8706C34.409 90.3647 33.7768 90.1217 33.2917 89.943C32.8575 89.7831 32.3789 89.914 31.7427 89.976C30.7172 90.0758 29.8922 90.4346 29.6203 90.5479C29.2864 90.687 29.4844 89.3288 29.4563 88.5345C29.424 87.6244 29.3499 86.6412 29.2311 85.1008C29.1717 84.331 29.0676 83.6997 29.0177 82.8861C28.9537 81.8424 28.9126 81.3596 28.892 80.9828C28.8718 80.611 28.8233 80.345 28.8439 80.2392C28.8506 80.2046 28.9465 80.291 28.915 80.3494C28.5925 80.9481 26.7139 80.7409 25.3187 80.8836C25.0199 80.8742 24.8502 80.8342 24.761 80.7991C24.7573 80.778 24.8383 80.7503 24.8941 80.5783" stroke="#FCDF3C" stroke-width="2" stroke-linecap="round"/>
<path d="M12 93.5761C12 93.3596 12.0301 92.8845 12.0969 92.8054C12.2247 92.654 12.361 92.7213 12.9158 92.6763C13.4383 92.6339 14.4514 92.588 14.8829 92.5878C15.3144 92.5876 15.134 92.6438 14.7497 92.8486C14.3654 93.0534 13.7826 93.4053 13.4632 93.5916C13.0348 93.8416 12.7603 93.8665 12.617 93.8736C12.129 93.8978 14.0264 93.9911 14.1102 93.9606C14.2679 93.9032 13.3732 93.8691 13.0974 93.8277C12.8603 93.7922 13.487 93.8324 14.5088 93.9625C14.9487 94.0185 15.2317 94.0047 15.528 93.9673C16.5852 93.8339 16.9078 93.7909 16.9611 93.7851C17.0669 93.7735 16.9407 92.9891 16.7765 91.7505C16.7442 91.5066 16.6948 91.3964 16.6589 91.3262C16.6024 91.2155 16.4516 91.2103 16.2731 91.2214C16.011 91.2376 15.7665 91.5532 15.5895 91.7969C15.5168 91.8971 15.5285 92.06 15.5377 92.1861C15.5744 92.6901 16.2381 92.9566 16.2904 92.9513C16.3422 92.9461 16.342 92.7585 16.3428 92.5655C16.3432 92.4678 16.3207 92.3715 16.1633 91.9332C16.0059 91.495 15.7084 90.718 15.5466 90.2789C15.3848 89.8397 15.3676 89.762 15.3408 89.1354C15.314 88.5088 15.2781 87.3358 15.2471 86.635C15.1913 85.741 15.1399 85.4325 15.0977 85.2433C15.0813 85.1635 15.0749 85.1167 15.0713 85" stroke="#FCDF3C" stroke-width="3" stroke-linecap="round"/>
<path d="M15.1285 85.3289C15.1285 85.32 15.1262 84.7137 15.0885 83.5631C15.0547 82.5301 14.9515 82.0252 15.027 82.0044C15.1044 81.983 15.2156 82.0461 15.5289 82.0629C15.773 82.0761 16.1906 82.0687 16.4754 83.1576C16.7603 84.2465 16.9 86.4244 16.969 87.5784C17.0418 88.7958 16.9745 88.9853 16.8906 89.19C16.8105 89.3852 16.8093 89.6388 16.8201 89.916C16.8248 90.0391 16.8543 90.1243 16.7948 89.4381C16.7353 88.752 16.5927 87.2913 16.4805 86.3216C16.3684 85.3518 16.291 84.9173 16.2492 84.5576C16.176 83.9296 16.2126 83.5531 16.271 83.288C16.3911 82.8669 16.4942 82.5497 16.5651 82.4014C16.6105 82.314 16.6753 82.202 16.7578 82.0581" stroke="#FCDF3C" stroke-width="3" stroke-linecap="round"/>
<path d="M26 82.046C26.0027 82.046 26.4112 82.046 27.259 82.0326C27.6998 82.0256 28.1616 81.9922 28.3333 82.0017C28.592 82.016 27.2298 82.4826 26.7627 82.6557C26.7155 82.6732 26.6688 82.6618 26.6339 82.682C26.5991 82.7023 26.5753 82.7424 26.5705 82.7841C26.5657 82.8259 26.5805 82.8681 26.6126 82.8936C26.6826 82.9493 26.9054 82.9457 27.3618 83.0151C28.0864 83.1252 28.5822 83.286 28.6365 83.3119C28.7556 83.3687 27.8622 83.4957 26.9791 83.5997C26.6548 83.6379 26.5818 83.6445 26.5678 83.6667C26.4796 83.8059 26.8534 83.8533 27.1827 84.2702C27.5857 84.7804 27.7885 85.3322 27.8967 85.5931C27.9892 85.8161 28.0087 86.2945 27.9992 86.8917C27.9954 87.1265 27.9665 87.2216 27.8764 86.8543C27.7862 86.4869 27.6287 85.654 27.5357 85.1906C27.3754 84.3922 27.0559 84.041 26.9915 83.9816C26.9602 83.9527 26.9236 83.9384 26.9025 83.9976C26.8814 84.0567 26.8749 84.1928 26.9229 84.9932C26.9708 85.7936 27.0734 87.2544 27.1325 88.0256C27.1917 88.7967 27.2043 88.8342 27.2299 88.8314C27.3972 88.8136 27.4431 88.558 27.7096 88.5028C27.8923 88.465 28.2131 88.5587 28.5425 88.6024C28.6769 88.6203 28.6153 88.2351 28.5369 87.314C28.4771 86.6123 28.4875 85.4259 28.4891 84.8456C28.4907 84.2653 28.5115 84.3248 28.5215 84.4089C28.5315 84.493 28.5301 84.5998 28.4965 84.9259C28.4629 85.252 28.3972 85.7941 28.35 86.8539C28.3028 87.9136 28.276 89.4746 28.266 90.3021C28.2554 91.1761 28.2714 91.3114 28.1709 91.6546C27.9599 92.3746 27.6558 92.8085 27.6569 92.8941C27.6582 92.9937 27.7073 93.3973 27.7141 93.9082C27.7162 94.0611 27.7342 93.9974 27.7421 93.9021C27.7603 93.6824 27.7162 93.3936 27.5621 92.9336C27.4593 92.6268 27.2525 92.1956 27.1156 91.7949C26.9787 91.3941 26.9042 91.0432 26.8612 90.6703C26.7744 89.9172 26.8354 89.4682 26.9497 89.3864C27.1211 89.2638 27.4329 89.3432 27.8148 89.4416C28.6818 89.6651 28.7957 89.8005 28.9525 89.828C29.201 89.8716 29.3281 90.3036 29.443 90.6761C29.5645 91.0703 29.5661 91.5188 29.5416 91.9364C29.5196 92.311 29.3509 92.5756 29.2495 92.7453C29.0818 93.0258 28.6756 93.0922 28.5936 93.2551C28.556 93.3298 28.5619 93.4296 28.5767 93.5218C28.59 93.6048 28.9042 93.7385 29.3137 93.8997C29.4703 93.9614 29.5486 93.8776 29.7312 93.5437C29.9137 93.2097 30.2045 92.6013 30.3928 92.2465C30.634 91.792 30.7977 91.6858 31.0346 91.5674C31.4917 91.3388 31.9188 91.2077 32.1579 91.1516C32.7219 91.0193 33.261 91.1216 33.6853 91.299C33.8281 91.3587 33.9083 91.4564 33.9731 91.5613C34.0035 91.6105 34.0019 91.6692 33.9977 91.7219C33.9894 91.8257 33.4641 92.079 32.5884 92.3856C32.0045 92.59 31.6091 92.5097 31.3578 92.5769C31.1505 92.661 31.0047 92.7429 30.844 92.8335C30.7346 92.8896 30.569 92.9662 30.3043 93.0703" stroke="#FCDF3C" stroke-width="3" stroke-linecap="round"/>
<path d="M14.2073 94.9215C14.0635 94.9246 13.6938 94.9541 13.4482 94.9975C13.1149 95.0564 12.7809 95.1219 12.4272 95.125C12.1949 95.127 11.8553 95.1094 11.5147 95.0885C11.174 95.0676 10.8425 95.0387 10.5971 95.0144C10.2017 94.9752 9.94326 94.9398 9.77178 94.9189C9.52443 94.8887 9.11285 94.5928 8.8824 94.2816C8.77949 94.1426 8.79825 93.7822 8.80062 93.3714C8.80245 93.0547 8.83133 92.8739 8.88351 92.6863C8.99096 92.2999 9.09307 92.1551 9.11145 92.0512C9.13309 91.9288 9.23762 91.812 9.32561 91.7336C9.4132 91.6555 9.86806 91.5101 10.2227 91.3996C10.3829 91.3498 10.5722 91.3738 10.7544 91.3458C10.9617 91.314 11.1645 91.3178 11.4573 91.2923C11.9857 91.2462 12.4454 91.3138 12.6451 91.3476C12.721 91.3605 12.7447 91.3683 12.7604 91.39C12.7761 91.4118 12.7829 91.4482 12.7752 91.4807C12.7377 91.6389 12.5523 91.7267 12.2839 91.9805C12.05 92.2016 11.6299 92.6229 11.3382 92.8954C10.9105 93.2949 10.6805 93.4344 10.5628 93.4908C10.4804 93.5302 10.3692 93.5285 10.2471 93.5182C10.1647 93.5112 10.1195 93.4361 10.0835 93.361C10.0086 93.2045 10.0619 93.0005 10.1317 92.878C10.1573 92.8574 10.1879 92.8455 10.2572 92.839C10.3265 92.8325 10.4335 92.8317 10.5487 92.8388" stroke="#FCDF3C" stroke-width="2" stroke-linecap="round"/>
</svg>
